<svg width="1280" height="437" viewBox="0 0 1280 437" fill="none" xmlns="http://www.w3.org/2000/svg">
<g style="mix-blend-mode:multiply">
<circle cx="1103" cy="257" r="12" fill="#929292"/>
<circle cx="1103" cy="257" r="12" fill="#B55EEB"/>
</g>
<g style="mix-blend-mode:multiply">
<circle cx="835.001" cy="270" r="12" fill="#929292"/>
<circle cx="835.001" cy="270" r="12" fill="#B55EEB"/>
</g>
<g style="mix-blend-mode:multiply">
<circle cx="394.001" cy="402" r="12" fill="#929292"/>
<circle cx="394.001" cy="402" r="12" fill="#B55EEB"/>
</g>
<g style="mix-blend-mode:multiply">
<circle cx="228" cy="12.9999" r="12" fill="#929292"/>
<circle cx="228" cy="12.9999" r="12" fill="#B55EEB"/>
</g>
<g style="mix-blend-mode:multiply">
<circle cx="1036" cy="78.9999" r="12" fill="#929292"/>
<circle cx="1036" cy="78.9999" r="12" fill="#B55EEB"/>
</g>
<g style="mix-blend-mode:multiply">
<circle cx="716.001" cy="388" r="12" fill="#929292"/>
<circle cx="716.001" cy="388" r="12" fill="#B55EEB"/>
</g>
<g style="mix-blend-mode:multiply">
<circle cx="616.001" cy="221" r="12" fill="#929292"/>
<circle cx="616.001" cy="221" r="12" fill="#B55EEB"/>
</g>
<circle cx="675.001" cy="96.9999" r="12" fill="#929292"/>
<circle cx="675.001" cy="96.9999" r="12" fill="#B55EEB"/>
<g style="mix-blend-mode:multiply">
<circle cx="165" cy="180" r="12" fill="#929292"/>
<circle cx="165" cy="180" r="12" fill="#B55EEB"/>
</g>
<circle cx="578.539" cy="421.659" r="8.31892" transform="rotate(25.0503 578.539 421.659)" fill="#929292"/>
<circle cx="578.539" cy="421.659" r="8.31892" transform="rotate(25.0503 578.539 421.659)" fill="#B55EEB"/>
<circle cx="493.155" cy="362.108" r="8.31892" transform="rotate(25.0503 493.155 362.108)" fill="#929292"/>
<circle cx="493.155" cy="362.108" r="8.31892" transform="rotate(25.0503 493.155 362.108)" fill="#B55EEB"/>
<circle cx="79.3498" cy="275.167" r="8.31892" transform="rotate(25.0503 79.3498 275.167)" fill="#929292"/>
<circle cx="79.3498" cy="275.167" r="8.31892" transform="rotate(25.0503 79.3498 275.167)" fill="#B55EEB"/>
<circle cx="100.109" cy="11.0587" r="8.31892" transform="rotate(25.0503 100.109 11.0587)" fill="#929292"/>
<circle cx="100.109" cy="11.0587" r="8.31892" transform="rotate(25.0503 100.109 11.0587)" fill="#B55EEB"/>
<ellipse cx="588.599" cy="290.29" rx="8.69705" ry="8.31892" transform="rotate(25.0503 588.599 290.29)" fill="#929292"/>
<ellipse cx="588.599" cy="290.29" rx="8.69705" ry="8.31892" transform="rotate(25.0503 588.599 290.29)" fill="#B55EEB"/>
<circle cx="296.573" cy="390.884" r="8.31892" transform="rotate(25.0503 296.573 390.884)" fill="#929292"/>
<circle cx="296.573" cy="390.884" r="8.31892" transform="rotate(25.0503 296.573 390.884)" fill="#B55EEB"/>
<circle cx="282.854" cy="255.914" r="8.31892" transform="rotate(25.0503 282.854 255.914)" fill="#929292"/>
<circle cx="282.854" cy="255.914" r="8.31892" transform="rotate(25.0503 282.854 255.914)" fill="#B55EEB"/>
<ellipse cx="356.195" cy="195.444" rx="8.31892" ry="8.69705" transform="rotate(25.0503 356.195 195.444)" fill="#929292"/>
<ellipse cx="356.195" cy="195.444" rx="8.31892" ry="8.69705" transform="rotate(25.0503 356.195 195.444)" fill="#B55EEB"/>
<circle cx="11.0587" cy="97.996" r="8.31892" transform="rotate(25.0503 11.0587 97.996)" fill="#929292"/>
<circle cx="11.0587" cy="97.996" r="8.31892" transform="rotate(25.0503 11.0587 97.996)" fill="#B55EEB"/>
<circle cx="739.523" cy="17.3366" r="8.31892" transform="rotate(-155.212 739.523 17.3366)" fill="#929292"/>
<circle cx="739.523" cy="17.3366" r="8.31892" transform="rotate(-155.212 739.523 17.3366)" fill="#B55EEB"/>
<circle cx="912.229" cy="87.0974" r="8.31892" transform="rotate(-155.212 912.229 87.0974)" fill="#929292"/>
<circle cx="912.229" cy="87.0974" r="8.31892" transform="rotate(-155.212 912.229 87.0974)" fill="#B55EEB"/>
<circle cx="1239.38" cy="161.541" r="8.31892" transform="rotate(-155.212 1239.38 161.541)" fill="#929292"/>
<circle cx="1239.38" cy="161.541" r="8.31892" transform="rotate(-155.212 1239.38 161.541)" fill="#B55EEB"/>
<circle cx="1219.83" cy="425.741" r="8.31892" transform="rotate(-155.212 1219.83 425.741)" fill="#929292"/>
<circle cx="1219.83" cy="425.741" r="8.31892" transform="rotate(-155.212 1219.83 425.741)" fill="#B55EEB"/>
<circle cx="1021.63" cy="46.8202" r="8.31892" transform="rotate(-155.212 1021.63 46.8202)" fill="#929292"/>
<circle cx="1021.63" cy="46.8202" r="8.31892" transform="rotate(-155.212 1021.63 46.8202)" fill="#B55EEB"/>
<circle cx="1035.96" cy="181.725" r="8.31892" transform="rotate(-155.212 1035.96 181.725)" fill="#929292"/>
<circle cx="1035.96" cy="181.725" r="8.31892" transform="rotate(-155.212 1035.96 181.725)" fill="#B55EEB"/>
<ellipse cx="962.901" cy="242.531" rx="8.31892" ry="8.69705" transform="rotate(-155.212 962.901 242.531)" fill="#929292"/>
<ellipse cx="962.901" cy="242.531" rx="8.31892" ry="8.69705" transform="rotate(-155.212 962.901 242.531)" fill="#B55EEB"/>
</svg>
