<svg width="36" height="35" viewBox="0 0 36 35" fill="none" xmlns="http://www.w3.org/2000/svg">
<path d="M32.893 25.3184H31.746V23.8464C31.746 21.2704 29.637 19.2096 27.084 19.2096H18.648V15.1984C22.385 14.6832 25.271 11.5184 25.271 7.6544C25.271 3.4224 21.83 0 17.575 0C13.32 0 9.879 3.4224 9.879 7.6544C9.879 11.5184 12.765 14.6832 16.502 15.1984V19.2096H8.103C5.513 19.2096 3.441 21.3072 3.441 23.8464V25.3184H2.257C0.999 25.3184 0 26.312 0 27.5632V31.9792C0 33.2304 0.999 34.224 2.257 34.224H6.697C7.955 34.224 8.954 33.2304 8.954 31.9792V27.5632C8.954 26.312 7.955 25.3184 6.697 25.3184H5.55V23.8464C5.55 22.448 6.697 21.3072 8.103 21.3072H16.502V25.3184H15.355C14.097 25.3184 13.098 26.312 13.098 27.5632V31.9792C13.098 33.2304 14.097 34.224 15.355 34.224H19.795C21.053 34.224 22.052 33.2304 22.052 31.9792V27.5632C22.052 26.312 21.053 25.3184 19.795 25.3184H18.648V21.3072H27.047C28.453 21.3072 29.6 22.448 29.6 23.8464V25.3184H28.453C27.195 25.3184 26.196 26.312 26.196 27.5632V31.9792C26.196 33.2304 27.195 34.224 28.453 34.224H32.893C34.151 34.224 35.15 33.2304 35.15 31.9792V27.5632C35.15 26.312 34.151 25.3184 32.893 25.3184ZM11.988 7.6544C11.988 4.6 14.504 2.0976 17.575 2.0976C20.646 2.0976 23.162 4.6 23.162 7.6544C23.162 10.7088 20.646 13.2112 17.575 13.2112C14.504 13.2112 11.988 10.7088 11.988 7.6544ZM6.845 27.5632V31.9792C6.845 32.0528 6.771 32.1264 6.697 32.1264L2.109 31.9792L2.257 27.416L6.845 27.5632ZM19.943 27.5632V31.9792C19.943 32.0528 19.869 32.1264 19.795 32.1264L15.207 31.9792L15.355 27.416L19.943 27.5632ZM33.041 31.9792C33.041 32.0528 32.967 32.1264 32.893 32.1264L28.305 31.9792L28.453 27.416L33.041 27.5632V31.9792Z" fill="#0D0745"/>
<path d="M20.535 7.13917C20.942 6.69757 20.905 6.03517 20.498 5.66717C20.091 5.26237 19.388 5.29917 19.018 5.70397L16.835 8.05917L16.058 7.21277C15.651 6.77117 14.985 6.77117 14.578 7.17597C14.134 7.58077 14.134 8.24317 14.541 8.64797L16.095 10.304C16.28 10.5248 16.576 10.6352 16.872 10.6352C17.168 10.6352 17.427 10.5248 17.649 10.304L20.535 7.13917Z" fill="#0D0745"/>
</svg>
