<svg width="177" height="47" viewBox="0 0 177 47" fill="none" xmlns="http://www.w3.org/2000/svg">
<path d="M3.808 46.12C3.04 46.12 2.368 46.056 1.792 45.928C1.216 45.832 0.704 45.688 0.256 45.496V41.848C0.768 41.976 1.312 42.088 1.888 42.184C2.464 42.28 3.072 42.328 3.712 42.328C4.512 42.328 5.264 42.168 5.968 41.848C6.704 41.528 7.296 40.968 7.744 40.168C8.192 39.368 8.416 38.248 8.416 36.808V2.728H12.736V36.472C12.736 38.68 12.368 40.488 11.632 41.896C10.896 43.336 9.856 44.392 8.512 45.064C7.168 45.768 5.6 46.12 3.808 46.12ZM43.573 24.088C43.573 26.232 43.285 28.136 42.709 29.8C42.165 31.432 41.365 32.824 40.309 33.976C39.285 35.128 38.021 36.008 36.517 36.616C35.045 37.192 33.397 37.48 31.573 37.48C29.877 37.48 28.309 37.192 26.869 36.616C25.429 36.008 24.181 35.128 23.125 33.976C22.069 32.824 21.237 31.432 20.629 29.8C20.053 28.136 19.765 26.232 19.765 24.088C19.765 21.24 20.245 18.84 21.205 16.888C22.165 14.904 23.541 13.4 25.333 12.376C27.125 11.32 29.253 10.792 31.717 10.792C34.053 10.792 36.101 11.32 37.861 12.376C39.653 13.4 41.045 14.904 42.037 16.888C43.061 18.84 43.573 21.24 43.573 24.088ZM24.133 24.088C24.133 26.104 24.389 27.864 24.901 29.368C25.445 30.84 26.277 31.976 27.397 32.776C28.517 33.576 29.941 33.976 31.669 33.976C33.397 33.976 34.821 33.576 35.941 32.776C37.061 31.976 37.877 30.84 38.389 29.368C38.933 27.864 39.205 26.104 39.205 24.088C39.205 22.04 38.933 20.296 38.389 18.856C37.845 17.416 37.013 16.312 35.893 15.544C34.805 14.744 33.381 14.344 31.621 14.344C28.997 14.344 27.093 15.208 25.909 16.936C24.725 18.664 24.133 21.048 24.133 24.088ZM58.8595 34.024C59.4995 34.024 60.1555 33.976 60.8275 33.88C61.4995 33.752 62.0435 33.624 62.4595 33.496V36.712C62.0115 36.936 61.3715 37.112 60.5395 37.24C59.7075 37.4 58.9075 37.48 58.1395 37.48C56.7955 37.48 55.5475 37.256 54.3955 36.808C53.2755 36.328 52.3635 35.512 51.6595 34.36C50.9555 33.208 50.6035 31.592 50.6035 29.512V14.536H46.9555V12.52L50.6515 10.84L52.3315 5.368H54.8275V11.272H62.2675V14.536H54.8275V29.416C54.8275 30.984 55.1955 32.152 55.9315 32.92C56.6995 33.656 57.6755 34.024 58.8595 34.024ZM92.3313 2.728L80.0913 37H75.7713L63.5312 2.728H68.0433L75.7713 24.712C76.1233 25.64 76.4273 26.536 76.6833 27.4C76.9393 28.264 77.1633 29.096 77.3553 29.896C77.5793 30.664 77.7713 31.432 77.9313 32.2C78.0913 31.432 78.2673 30.648 78.4593 29.848C78.6833 29.048 78.9233 28.216 79.1793 27.352C79.4673 26.488 79.7713 25.576 80.0913 24.616L87.7712 2.728H92.3313ZM105.199 10.84C108.335 10.84 110.655 11.528 112.159 12.904C113.663 14.28 114.415 16.472 114.415 19.48V37H111.343L110.527 33.352H110.335C109.599 34.28 108.831 35.064 108.031 35.704C107.263 36.312 106.367 36.76 105.343 37.048C104.351 37.336 103.135 37.48 101.695 37.48C100.159 37.48 98.767 37.208 97.519 36.664C96.303 36.12 95.343 35.288 94.639 34.168C93.935 33.016 93.583 31.576 93.583 29.848C93.583 27.288 94.591 25.32 96.607 23.944C98.623 22.536 101.727 21.768 105.919 21.64L110.287 21.496V19.96C110.287 17.816 109.823 16.328 108.895 15.496C107.967 14.664 106.655 14.248 104.959 14.248C103.615 14.248 102.335 14.456 101.119 14.872C99.903 15.256 98.767 15.704 97.711 16.216L96.415 13.048C97.535 12.44 98.863 11.928 100.399 11.512C101.935 11.064 103.535 10.84 105.199 10.84ZM106.447 24.568C103.247 24.696 101.023 25.208 99.775 26.104C98.559 27 97.951 28.264 97.951 29.896C97.951 31.336 98.383 32.392 99.247 33.064C100.143 33.736 101.279 34.072 102.655 34.072C104.831 34.072 106.639 33.48 108.079 32.296C109.519 31.08 110.239 29.224 110.239 26.728V24.424L106.447 24.568ZM143.865 11.272V37H140.409L139.785 33.592H139.593C139.049 34.488 138.345 35.224 137.481 35.8C136.617 36.376 135.673 36.792 134.649 37.048C133.625 37.336 132.553 37.48 131.433 37.48C129.385 37.48 127.657 37.16 126.249 36.52C124.873 35.848 123.833 34.824 123.129 33.448C122.425 32.072 122.073 30.296 122.073 28.12V11.272H126.345V27.832C126.345 29.88 126.809 31.416 127.737 32.44C128.665 33.464 130.105 33.976 132.057 33.976C133.977 33.976 135.481 33.624 136.569 32.92C137.689 32.184 138.473 31.128 138.921 29.752C139.401 28.344 139.641 26.648 139.641 24.664V11.272H143.865ZM156.257 37H152.033V0.519998H156.257V37ZM173 34.024C173.64 34.024 174.296 33.976 174.968 33.88C175.64 33.752 176.184 33.624 176.6 33.496V36.712C176.152 36.936 175.512 37.112 174.68 37.24C173.848 37.4 173.048 37.48 172.28 37.48C170.936 37.48 169.688 37.256 168.536 36.808C167.416 36.328 166.504 35.512 165.8 34.36C165.096 33.208 164.744 31.592 164.744 29.512V14.536H161.096V12.52L164.792 10.84L166.472 5.368H168.968V11.272H176.408V14.536H168.968V29.416C168.968 30.984 169.336 32.152 170.072 32.92C170.84 33.656 171.816 34.024 173 34.024Z" fill="white"/>
</svg>
