<svg width="260" height="63" viewBox="0 0 260 63" fill="none" xmlns="http://www.w3.org/2000/svg">
<path d="M5.96 62.44C4.72267 62.44 3.63467 62.3547 2.696 62.184C1.75733 62.056 0.946667 61.9067 0.264 61.736V53.672C0.946667 53.8427 1.672 53.992 2.44 54.12C3.16533 54.248 3.95467 54.312 4.808 54.312C5.91733 54.312 6.92 54.0987 7.816 53.672C8.75467 53.2453 9.48 52.4347 9.992 51.24C10.504 50.0453 10.76 48.3387 10.76 46.12V3.304H20.424V46.056C20.424 49.9813 19.8053 53.1387 18.568 55.528C17.3733 57.96 15.688 59.7093 13.512 60.776C11.336 61.8853 8.81867 62.44 5.96 62.44ZM62.9235 31.464C62.9235 34.3653 62.5182 36.9467 61.7075 39.208C60.9395 41.4693 59.8088 43.3893 58.3155 44.968C56.8648 46.504 55.0942 47.6773 53.0035 48.488C50.9128 49.256 48.5448 49.64 45.8995 49.64C43.4675 49.64 41.2062 49.256 39.1155 48.488C37.0675 47.6773 35.2968 46.504 33.8035 44.968C32.3102 43.3893 31.1368 41.4693 30.2835 39.208C29.4728 36.9467 29.0675 34.3653 29.0675 31.464C29.0675 27.5813 29.7502 24.3173 31.1155 21.672C32.4808 18.984 34.4435 16.936 37.0035 15.528C39.5635 14.12 42.5928 13.416 46.0915 13.416C49.3768 13.416 52.2782 14.12 54.7955 15.528C57.3128 16.936 59.2968 18.984 60.7475 21.672C62.1982 24.3173 62.9235 27.5813 62.9235 31.464ZM38.7955 31.464C38.7955 33.768 39.0302 35.7093 39.4995 37.288C40.0115 38.824 40.8008 39.9973 41.8675 40.808C42.9342 41.576 44.3208 41.96 46.0275 41.96C47.7342 41.96 49.0995 41.576 50.1235 40.808C51.1902 39.9973 51.9582 38.824 52.4275 37.288C52.9395 35.7093 53.1955 33.768 53.1955 31.464C53.1955 29.16 52.9395 27.24 52.4275 25.704C51.9582 24.168 51.1902 23.016 50.1235 22.248C49.0568 21.48 47.6702 21.096 45.9635 21.096C43.4462 21.096 41.6115 21.9707 40.4595 23.72C39.3502 25.4267 38.7955 28.008 38.7955 31.464ZM85.5245 42.024C86.5912 42.024 87.6152 41.9173 88.5965 41.704C89.5778 41.4907 90.5592 41.2347 91.5405 40.936V48.04C90.5165 48.4667 89.2365 48.8293 87.7005 49.128C86.2072 49.4693 84.5645 49.64 82.7725 49.64C80.6818 49.64 78.8045 49.2987 77.1405 48.616C75.5192 47.9333 74.2178 46.76 73.2365 45.096C72.2978 43.3893 71.8285 41.0427 71.8285 38.056V21.224H67.2845V17.192L72.5325 13.992L75.2845 6.632H81.3645V14.056H91.1565V21.224H81.3645V38.056C81.3645 39.3787 81.7485 40.3813 82.5165 41.064C83.2845 41.704 84.2872 42.024 85.5245 42.024ZM135.163 3.304L119.611 49H109.051L93.5625 3.304H103.355L111.931 30.504C112.101 30.9733 112.336 31.848 112.635 33.128C112.976 34.3653 113.317 35.688 113.659 37.096C114 38.4613 114.235 39.6133 114.363 40.552C114.491 39.6133 114.704 38.4613 115.003 37.096C115.344 35.688 115.685 34.3653 116.027 33.128C116.368 31.848 116.603 30.9733 116.731 30.504L125.371 3.304H135.163ZM153.266 13.352C157.959 13.352 161.543 14.376 164.018 16.424C166.535 18.4293 167.794 21.5227 167.794 25.704V49H161.138L159.282 44.264H159.026C158.044 45.5013 157.02 46.5253 155.954 47.336C154.93 48.1467 153.735 48.7227 152.37 49.064C151.047 49.448 149.404 49.64 147.442 49.64C145.394 49.64 143.538 49.256 141.874 48.488C140.252 47.6773 138.972 46.4613 138.034 44.84C137.095 43.176 136.626 41.0853 136.626 38.568C136.626 34.856 137.927 32.1253 140.53 30.376C143.132 28.584 147.036 27.6027 152.242 27.432L158.322 27.24V25.704C158.322 23.8693 157.831 22.5253 156.85 21.672C155.911 20.8187 154.588 20.392 152.882 20.392C151.175 20.392 149.511 20.648 147.89 21.16C146.268 21.6293 144.647 22.2267 143.026 22.952L139.89 16.488C141.767 15.5067 143.836 14.7387 146.098 14.184C148.402 13.6293 150.791 13.352 153.266 13.352ZM154.61 32.936C151.538 33.0213 149.404 33.576 148.21 34.6C147.015 35.624 146.418 36.968 146.418 38.632C146.418 40.0827 146.844 41.128 147.698 41.768C148.551 42.3653 149.66 42.664 151.026 42.664C153.074 42.664 154.802 42.0667 156.21 40.872C157.618 39.6347 158.322 37.9067 158.322 35.688V32.808L154.61 32.936ZM209.619 14.056V49H202.323L201.043 44.52H200.531C199.805 45.7147 198.867 46.696 197.715 47.464C196.605 48.1893 195.368 48.7227 194.003 49.064C192.637 49.448 191.229 49.64 189.779 49.64C187.304 49.64 185.128 49.192 183.251 48.296C181.373 47.4 179.923 46.0133 178.899 44.136C177.875 42.2587 177.363 39.8267 177.363 36.84V14.056H186.899V34.472C186.899 36.9467 187.347 38.824 188.243 40.104C189.139 41.384 190.568 42.024 192.531 42.024C194.493 42.024 196.008 41.576 197.075 40.68C198.184 39.784 198.952 38.4827 199.379 36.776C199.848 35.0693 200.083 32.9787 200.083 30.504V14.056H209.619ZM229.153 49H219.617V0.359997H229.153V49ZM253.837 42.024C254.904 42.024 255.928 41.9173 256.909 41.704C257.89 41.4907 258.872 41.2347 259.853 40.936V48.04C258.829 48.4667 257.549 48.8293 256.013 49.128C254.52 49.4693 252.877 49.64 251.085 49.64C248.994 49.64 247.117 49.2987 245.453 48.616C243.832 47.9333 242.53 46.76 241.549 45.096C240.61 43.3893 240.141 41.0427 240.141 38.056V21.224H235.597V17.192L240.845 13.992L243.597 6.632H249.677V14.056H259.469V21.224H249.677V38.056C249.677 39.3787 250.061 40.3813 250.829 41.064C251.597 41.704 252.6 42.024 253.837 42.024Z" fill="white"/>
</svg>
