<svg width="196" height="48" viewBox="0 0 196 48" fill="none" xmlns="http://www.w3.org/2000/svg">
<path d="M4.73438 47.3588C3.80638 47.3588 2.99038 47.2948 2.28638 47.1668C1.58238 47.0708 0.974381 46.9588 0.462381 46.8308V40.7828C0.974381 40.9108 1.51838 41.0228 2.09438 41.1188C2.63838 41.2148 3.23038 41.2628 3.87038 41.2628C4.70238 41.2628 5.45438 41.1028 6.12638 40.7828C6.83038 40.4628 7.37438 39.8548 7.75838 38.9588C8.14238 38.0628 8.33438 36.7828 8.33438 35.1188V3.00681H15.5824V35.0708C15.5824 38.0148 15.1184 40.3828 14.1904 42.1748C13.2944 43.9988 12.0304 45.3108 10.3984 46.1108C8.76638 46.9428 6.87838 47.3588 4.73438 47.3588ZM47.457 24.1268C47.457 26.3028 47.153 28.2388 46.545 29.9348C45.969 31.6308 45.121 33.0708 44.001 34.2548C42.913 35.4068 41.585 36.2868 40.017 36.8948C38.449 37.4708 36.673 37.7588 34.689 37.7588C32.865 37.7588 31.169 37.4708 29.601 36.8948C28.065 36.2868 26.737 35.4068 25.617 34.2548C24.497 33.0708 23.617 31.6308 22.977 29.9348C22.369 28.2388 22.065 26.3028 22.065 24.1268C22.065 21.2148 22.577 18.7668 23.601 16.7828C24.625 14.7668 26.097 13.2308 28.017 12.1748C29.937 11.1188 32.209 10.5908 34.833 10.5908C37.297 10.5908 39.473 11.1188 41.361 12.1748C43.249 13.2308 44.737 14.7668 45.825 16.7828C46.913 18.7668 47.457 21.2148 47.457 24.1268ZM29.361 24.1268C29.361 25.8548 29.537 27.3108 29.889 28.4948C30.273 29.6468 30.865 30.5268 31.665 31.1348C32.465 31.7108 33.505 31.9988 34.785 31.9988C36.065 31.9988 37.089 31.7108 37.857 31.1348C38.657 30.5268 39.233 29.6468 39.585 28.4948C39.969 27.3108 40.161 25.8548 40.161 24.1268C40.161 22.3988 39.969 20.9588 39.585 19.8068C39.233 18.6548 38.657 17.7908 37.857 17.2148C37.057 16.6388 36.017 16.3508 34.737 16.3508C32.849 16.3508 31.473 17.0068 30.609 18.3188C29.777 19.5988 29.361 21.5348 29.361 24.1268ZM64.4078 32.0468C65.2078 32.0468 65.9758 31.9668 66.7118 31.8068C67.4478 31.6468 68.1838 31.4548 68.9198 31.2308V36.5588C68.1518 36.8788 67.1918 37.1508 66.0398 37.3748C64.9198 37.6308 63.6878 37.7588 62.3438 37.7588C60.7758 37.7588 59.3678 37.5028 58.1198 36.9908C56.9038 36.4788 55.9278 35.5988 55.1918 34.3508C54.4878 33.0708 54.1358 31.3108 54.1358 29.0708V16.4468H50.7278V13.4228L54.6638 11.0228L56.7278 5.50281H61.2878V11.0708H68.6318V16.4468H61.2878V29.0708C61.2878 30.0628 61.5758 30.8148 62.1518 31.3268C62.7278 31.8068 63.4798 32.0468 64.4078 32.0468ZM101.636 3.00681L89.9723 37.2788H82.0523L70.4363 3.00681H77.7803L84.2123 23.4068C84.3403 23.7588 84.5163 24.4148 84.7403 25.3748C84.9963 26.3028 85.2523 27.2948 85.5083 28.3508C85.7643 29.3748 85.9403 30.2388 86.0363 30.9428C86.1323 30.2388 86.2923 29.3748 86.5163 28.3508C86.7723 27.2948 87.0283 26.3028 87.2843 25.3748C87.5403 24.4148 87.7163 23.7588 87.8123 23.4068L94.2923 3.00681H101.636ZM115.214 10.5428C118.734 10.5428 121.422 11.3108 123.278 12.8468C125.166 14.3508 126.11 16.6708 126.11 19.8068V37.2788H121.118L119.726 33.7268H119.534C118.798 34.6548 118.03 35.4228 117.23 36.0308C116.462 36.6388 115.566 37.0708 114.542 37.3268C113.55 37.6148 112.318 37.7588 110.846 37.7588C109.31 37.7588 107.918 37.4708 106.67 36.8948C105.454 36.2868 104.494 35.3748 103.79 34.1588C103.086 32.9108 102.734 31.3428 102.734 29.4548C102.734 26.6708 103.71 24.6228 105.662 23.3108C107.614 21.9668 110.542 21.2308 114.446 21.1028L119.006 20.9588V19.8068C119.006 18.4308 118.638 17.4228 117.902 16.7828C117.198 16.1428 116.206 15.8228 114.926 15.8228C113.646 15.8228 112.398 16.0148 111.182 16.3988C109.966 16.7508 108.75 17.1988 107.534 17.7428L105.182 12.8948C106.59 12.1588 108.142 11.5828 109.838 11.1668C111.566 10.7508 113.358 10.5428 115.214 10.5428ZM116.222 25.2308C113.918 25.2948 112.318 25.7108 111.422 26.4788C110.526 27.2468 110.078 28.2548 110.078 29.5028C110.078 30.5908 110.398 31.3748 111.038 31.8548C111.678 32.3028 112.51 32.5268 113.534 32.5268C115.07 32.5268 116.366 32.0788 117.422 31.1828C118.478 30.2548 119.006 28.9588 119.006 27.2948V25.1348L116.222 25.2308ZM157.478 11.0708V37.2788H152.006L151.046 33.9188H150.662C150.118 34.8148 149.414 35.5508 148.55 36.1268C147.718 36.6708 146.79 37.0708 145.766 37.3268C144.742 37.6148 143.686 37.7588 142.598 37.7588C140.742 37.7588 139.11 37.4228 137.702 36.7508C136.294 36.0788 135.206 35.0388 134.438 33.6308C133.67 32.2228 133.286 30.3988 133.286 28.1588V11.0708H140.438V26.3828C140.438 28.2388 140.774 29.6468 141.446 30.6068C142.118 31.5668 143.19 32.0468 144.662 32.0468C146.134 32.0468 147.27 31.7108 148.07 31.0388C148.902 30.3668 149.478 29.3908 149.798 28.1108C150.15 26.8308 150.326 25.2628 150.326 23.4068V11.0708H157.478ZM172.129 37.2788H164.977V0.798806H172.129V37.2788ZM190.642 32.0468C191.442 32.0468 192.21 31.9668 192.946 31.8068C193.682 31.6468 194.418 31.4548 195.154 31.2308V36.5588C194.386 36.8788 193.426 37.1508 192.274 37.3748C191.154 37.6308 189.922 37.7588 188.578 37.7588C187.01 37.7588 185.602 37.5028 184.354 36.9908C183.138 36.4788 182.162 35.5988 181.426 34.3508C180.722 33.0708 180.37 31.3108 180.37 29.0708V16.4468H176.962V13.4228L180.898 11.0228L182.962 5.50281H187.522V11.0708H194.866V16.4468H187.522V29.0708C187.522 30.0628 187.81 30.8148 188.386 31.3268C188.962 31.8068 189.714 32.0468 190.642 32.0468Z" fill="black"/>
</svg>
