<svg xmlns="http://www.w3.org/2000/svg" xmlns:xlink="http://www.w3.org/1999/xlink" xml:space="preserve" version="1.1" style="shape-rendering:geometricPrecision;text-rendering:geometricPrecision;image-rendering:optimizeQuality;" viewBox="0 0 333 416.25" x="0px" y="0px" fill-rule="evenodd" clip-rule="evenodd"><defs><style type="text/css">
   
    .fil0 {fill:black}
   
  </style></defs><g><path class="fil0" d="M39 89l27 -15 11 20c6,10 19,13 29,7l34 -19c11,-6 14,-19 8,-30l-11 -19 27 -16c8,-5 20,-2 25,7l112 195c5,9 2,20 -6,25l-125 72c-9,5 -20,2 -25,-6l-113 -196c-5,-9 -2,-20 7,-25zm38 -35c-7,-9 -4,-23 6,-28l3 -2c10,-6 23,-2 28,9 5,-3 11,-2 14,4l13 21c3,6 1,12 -4,15l-37 21c-5,3 -11,2 -14,-4l-13 -21c-3,-6 -1,-12 4,-15zm10 -6l17 -10c-1,-5 -7,-8 -12,-5l-4 2c-5,3 -5,9 -1,13zm42 159l92 -53c6,-4 12,6 6,10l-93 53c-6,4 -12,-6 -5,-10zm-16 -27l92 -54c6,-3 12,6 6,10l-93 53c-6,4 -12,-6 -5,-9zm-16 -28l92 -53c6,-4 12,6 6,9l-93 54c-6,4 -12,-6 -5,-10z"/></g><text x="0" y="348" fill="#000000" font-size="5px" font-weight="bold" font-family="'Helvetica Neue', Helvetica, Arial-Unicode, Arial, Sans-serif">Created by mbok sumirna</text><text x="0" y="353" fill="#000000" font-size="5px" font-weight="bold" font-family="'Helvetica Neue', Helvetica, Arial-Unicode, Arial, Sans-serif">from the Noun Project</text></svg>