<svg xmlns="http://www.w3.org/2000/svg" data-name="Layer 1" viewBox="0 0 100 125" x="0px" y="0px"><title>Artboard 9</title><path d="M5.69,42.41l.14,1.14.57,4.69C8,61,9.89,75.51,11.95,90c.07.48.11.85.21,1.42a9.74,9.74,0,0,0,.5,1.86,9.52,9.52,0,0,0,9,6.12,25.54,25.54,0,0,0,3.07-.35l2.68-.39,5.31-.79c7-1.05,13.82-2.1,20.15-3.11s12.21-2,17.39-2.9l.25,0,.31-.07.61-.14a9,9,0,0,0,1.16-.43,8.24,8.24,0,0,0,2-1.26,8.45,8.45,0,0,0,2.53-3.61,8.15,8.15,0,0,0,.42-3.94c0-.33-.09-.58-.14-.82l0-.25.8.09.24,0,.32,0,.67,0A10,10,0,0,0,82,81.18a9.55,9.55,0,0,0,6.86-7.54c0-.21.08-.47.1-.63l.06-.48.11-1,.22-1.91.44-3.81.88-7.61L92.4,43.13l1.67-14.86.2-1.83.1-.91a11.41,11.41,0,0,0,.06-1.25,9.39,9.39,0,0,0-5-8.17,9.55,9.55,0,0,0-2.33-.85l-.61-.1-.54-.07L85,15,60.18,12.3l.17-1.65.21-2a9.19,9.19,0,0,0,.06-1.28A6.75,6.75,0,0,0,60.44,6,7,7,0,0,0,52.17.71a6.93,6.93,0,0,0-5.29,5,7.54,7.54,0,0,0-.21,1.17l-.09.86-.65,6.62-.59,6.17L45.21,22c0,.27,0,.42-.06.78a6.21,6.21,0,0,0,0,1,6.51,6.51,0,0,0,1.36,3.46,6.41,6.41,0,0,0,6.16,2.37,6.26,6.26,0,0,0,4.63-3.64,1.79,1.79,0,0,0,0-1.48,1,1,0,0,0-.9-.59,1.85,1.85,0,0,0-1.54.94,3.47,3.47,0,0,1-2.67,1.83,3.31,3.31,0,0,1-3.09-1.39,3.19,3.19,0,0,1-.57-1.72,2.83,2.83,0,0,1,0-.47c0-.12.06-.45.09-.66l.2-1.46.84-6.14L50.6,8.2l.11-.85a3.15,3.15,0,0,1,.12-.54,2.79,2.79,0,0,1,.46-.89A2.72,2.72,0,0,1,55,5.31,2.67,2.67,0,0,1,56.09,7a2.31,2.31,0,0,1,.05.52,4.63,4.63,0,0,1-.06.66l-.25,1.95-.51,4h0a2.3,2.3,0,0,0,2,2.56h0l27.08,3.4.89.11.35.05.28,0a4.4,4.4,0,0,1,1,.4,4.18,4.18,0,0,1,1.6,1.52,4.08,4.08,0,0,1,.6,2.13c0,.19,0,.36,0,.58l-.11.91-.22,1.83L87,42.51,83.45,72.69a4.06,4.06,0,0,1-2.9,3.2,4.57,4.57,0,0,1-1.12.15l-.29,0H79l-.24,0-.95-.11L74,75.45l-15-1.7L44.27,72.1l-7.19-.79-3.54-.39a30.43,30.43,0,0,1-3.08-.4,4.31,4.31,0,0,1-3.14-4c0-.18,0-.36,0-.55l.09-.84.36-3.34,1.35-12.87L31.41,26l.47-5,.22-2.39a9.08,9.08,0,0,1,.13-1,5.48,5.48,0,0,1,.24-.83,5.35,5.35,0,0,1,5.15-3.35c.84,0,1.71-.51,1.71-1.29a1.53,1.53,0,0,0-1.5-1.44,8.09,8.09,0,0,0-4.72.93,8.33,8.33,0,0,0-3.63,3.87A8.69,8.69,0,0,0,29,16.84a12.32,12.32,0,0,0-.25,1.35l-.34,2.38-.69,5-.67,5c-3.61.28-8.07.71-13.19,1.26l-.49.05-.63.1a8.56,8.56,0,0,0-1.26.33,8.81,8.81,0,0,0-2.37,1.26,8.92,8.92,0,0,0-3.19,4.56,9.22,9.22,0,0,0-.37,2.93l.06.75Zm4.47-3.07a4.73,4.73,0,0,1,1.53-2.47,4.82,4.82,0,0,1,1.22-.76,4.66,4.66,0,0,1,.68-.23l.35-.09.49-.09c4.72-.83,8.85-1.6,12.26-2.29l-2,14.94L23,61.19l-.42,3.33-.11.85a11.39,11.39,0,0,0-.06,1.15,9.17,9.17,0,0,0,.3,2.3,9.24,9.24,0,0,0,6.3,6.52,12,12,0,0,0,2.14.4L33,76l3.54.44,7.18.88,14.69,1.78,15,1.8.93.11,0,.29.06.74a6.72,6.72,0,0,1,0,.69,5.12,5.12,0,0,1-.5,2.39,5.07,5.07,0,0,1-1.66,2,4.61,4.61,0,0,1-1.2.62,5.26,5.26,0,0,1-.66.19l-.35.05-.17,0-.24,0c-5.23.57-11.15,1.26-17.51,2S39,91.68,31.92,92.62l-5.32.72-2.68.37C23,93.81,22,94,21.58,94a4.07,4.07,0,0,1-2.92-1.25,4,4,0,0,1-.87-1.37,4.29,4.29,0,0,1-.21-.79c-.06-.34-.13-.88-.19-1.3-2.06-14.52-4.23-29-6.26-41.7l-.75-4.66-.19-1.14-.09-.56,0-.38A4.86,4.86,0,0,1,10.15,39.34Z"/><text x="0" y="115" fill="#000000" font-size="5px" font-weight="bold" font-family="'Helvetica Neue', Helvetica, Arial-Unicode, Arial, Sans-serif">Created by Gregor Cresnar</text><text x="0" y="120" fill="#000000" font-size="5px" font-weight="bold" font-family="'Helvetica Neue', Helvetica, Arial-Unicode, Arial, Sans-serif">from the Noun Project</text></svg>