<svg width="18" height="16" viewBox="0 0 18 16" fill="none" xmlns="http://www.w3.org/2000/svg">
<path id="Vector" d="M5.3485 0.220889C5.69651 0.533749 5.72464 1.06456 5.41178 1.41257L2.88077 4.2248C2.7261 4.39704 2.50815 4.49899 2.27614 4.5025C2.04414 4.50602 1.82267 4.41814 1.65746 4.25643L0.247827 2.85032C-0.0790939 2.51988 -0.0790939 1.98556 0.247827 1.65512C0.574749 1.32469 1.11259 1.32469 1.43951 1.65512L2.21639 2.432L4.15331 0.280649C4.46617 -0.0673638 4.99697 -0.0954861 5.34499 0.217374L5.3485 0.220889ZM5.3485 5.84534C5.69651 6.1582 5.72464 6.68901 5.41178 7.03702L2.88077 9.84925C2.7261 10.0215 2.50815 10.1234 2.27614 10.127C2.04414 10.1305 1.82267 10.0426 1.65746 9.88088L0.247827 8.47477C-0.0826091 8.14433 -0.0826091 7.61001 0.247827 7.28309C0.578264 6.95617 1.11259 6.95265 1.43951 7.28309L2.21639 8.05997L4.15331 5.90861C4.46617 5.5606 4.99697 5.53248 5.34499 5.84534H5.3485ZM7.87599 2.25272C7.87599 1.63052 8.37867 1.12783 9.00088 1.12783H16.8751C17.4973 1.12783 18 1.63052 18 2.25272C18 2.87493 17.4973 3.37761 16.8751 3.37761H9.00088C8.37867 3.37761 7.87599 2.87493 7.87599 2.25272ZM7.87599 7.87717C7.87599 7.25497 8.37867 6.75228 9.00088 6.75228H16.8751C17.4973 6.75228 18 7.25497 18 7.87717C18 8.49938 17.4973 9.00206 16.8751 9.00206H9.00088C8.37867 9.00206 7.87599 8.49938 7.87599 7.87717ZM5.62621 13.5016C5.62621 12.8794 6.12889 12.3767 6.7511 12.3767H16.8751C17.4973 12.3767 18 12.8794 18 13.5016C18 14.1238 17.4973 14.6265 16.8751 14.6265H6.7511C6.12889 14.6265 5.62621 14.1238 5.62621 13.5016ZM1.68909 11.8143C2.1366 11.8143 2.56578 11.9921 2.88222 12.3085C3.19866 12.6249 3.37643 13.0541 3.37643 13.5016C3.37643 13.9491 3.19866 14.3783 2.88222 14.6947C2.56578 15.0112 2.1366 15.189 1.68909 15.189C1.24158 15.189 0.812403 15.0112 0.495967 14.6947C0.17953 14.3783 0.00175763 13.9491 0.00175763 13.5016C0.00175763 13.0541 0.17953 12.6249 0.495967 12.3085C0.812403 11.9921 1.24158 11.8143 1.68909 11.8143Z" fill="#0D0745"/>
</svg>
