<svg width="72" height="69" viewBox="0 0 72 69" fill="none" xmlns="http://www.w3.org/2000/svg">
<g id="Group 6">
<path id="Ellipse 45" d="M71.5 49.5C71.5 66.0685 53.5685 69 37 69C20.4315 69 0 52.5685 0 36C0 19.4315 20.4315 0.5 37 0.5C53.5685 0.5 71.5 32.9315 71.5 49.5Z" fill="#5E72EB" fill-opacity="0.35"/>
<path id="Vector" d="M28.8065 24.405C29.4446 24.9786 29.4962 25.9519 28.9226 26.59L24.2819 31.7462C23.9983 32.062 23.5987 32.2489 23.1733 32.2554C22.7479 32.2618 22.3419 32.1007 22.039 31.8042L19.4544 29.2261C18.855 28.6202 18.855 27.6406 19.4544 27.0347C20.0538 26.4288 21.0399 26.4288 21.6394 27.0347L23.0638 28.4591L26.6151 24.5146C27.1888 23.8765 28.162 23.8249 28.8001 24.3986L28.8065 24.405ZM28.8065 34.7175C29.4446 35.2911 29.4962 36.2644 28.9226 36.9025L24.2819 42.0587C23.9983 42.3745 23.5987 42.5614 23.1733 42.5679C22.7479 42.5743 22.3419 42.4132 22.039 42.1167L19.4544 39.5386C18.8485 38.9327 18.8485 37.953 19.4544 37.3536C20.0603 36.7542 21.0399 36.7478 21.6394 37.3536L23.0638 38.7781L26.6151 34.8335C27.1888 34.1954 28.162 34.1439 28.8001 34.7175H28.8065ZM33.4407 28.1304C33.4407 26.9896 34.3624 26.0679 35.5032 26.0679H49.9407C51.0815 26.0679 52.0032 26.9896 52.0032 28.1304C52.0032 29.2712 51.0815 30.1929 49.9407 30.1929H35.5032C34.3624 30.1929 33.4407 29.2712 33.4407 28.1304ZM33.4407 38.4429C33.4407 37.3021 34.3624 36.3804 35.5032 36.3804H49.9407C51.0815 36.3804 52.0032 37.3021 52.0032 38.4429C52.0032 39.5837 51.0815 40.5054 49.9407 40.5054H35.5032C34.3624 40.5054 33.4407 39.5837 33.4407 38.4429ZM29.3157 48.7554C29.3157 47.6146 30.2374 46.6929 31.3782 46.6929H49.9407C51.0815 46.6929 52.0032 47.6146 52.0032 48.7554C52.0032 49.8962 51.0815 50.8179 49.9407 50.8179H31.3782C30.2374 50.8179 29.3157 49.8962 29.3157 48.7554ZM22.097 45.6616C22.9175 45.6616 23.7044 45.9876 24.2846 46.5678C24.8648 47.148 25.1907 47.9349 25.1907 48.7554C25.1907 49.5759 24.8648 50.3628 24.2846 50.943C23.7044 51.5232 22.9175 51.8491 22.097 51.8491C21.2765 51.8491 20.4896 51.5232 19.9094 50.943C19.3292 50.3628 19.0032 49.5759 19.0032 48.7554C19.0032 47.9349 19.3292 47.148 19.9094 46.5678C20.4896 45.9876 21.2765 45.6616 22.097 45.6616Z" fill="#0D0745"/>
</g>
</svg>
