<svg width="20" height="20" viewBox="0 0 20 20" fill="none" xmlns="http://www.w3.org/2000/svg">
<g id="thumbtack-solid 1" clip-path="url(#clip0_8_250)">
<path id="Vector" d="M9.33943 0.423037C9.62541 -0.0504192 10.239 -0.201879 10.7124 0.084105L17.5601 4.22037C18.0336 4.50636 18.1851 5.11992 17.8991 5.59337C17.6131 6.06683 16.9995 6.21829 16.5261 5.9323L15.737 5.45566L13.6474 9.60404C14.3076 10.7293 14.5452 12.0886 14.2439 13.4217L14.2221 13.5181C14.1521 13.8335 13.9337 14.0923 13.6391 14.2174C13.3445 14.3424 13.0043 14.3194 12.7287 14.153L4.16909 8.98269C3.89358 8.81627 3.71596 8.53009 3.68851 8.20684C3.66107 7.88359 3.79115 7.57152 4.03615 7.36538L4.11137 7.30129C5.15103 6.41418 6.46479 5.992 7.768 6.05267L10.4675 2.27268L9.67836 1.79604C9.2049 1.51005 9.05344 0.896492 9.33943 0.423037ZM7.07592 11.9068L8.78785 12.9409L7.23675 15.5087C6.95076 15.9822 6.33721 16.1337 5.86375 15.8477C5.39029 15.5617 5.23883 14.9481 5.52482 14.4747L7.07592 11.9068Z" fill="#0D0745"/>
</g>
<defs>
<clipPath id="clip0_8_250">
<rect width="12" height="16" fill="white" transform="translate(9.00049 0.0500488) rotate(31.1335)"/>
</clipPath>
</defs>
</svg>
