<svg width="424" height="344" viewBox="0 0 424 344" fill="none" xmlns="http://www.w3.org/2000/svg">
<g clip-path="url(#clip0_2_227)">
<path d="M120.825 217.707C120.176 217.465 119.589 217.083 119.104 216.59C118.619 216.096 118.248 215.502 118.018 214.85C117.788 214.197 117.703 213.502 117.771 212.814C117.839 212.126 118.057 211.461 118.41 210.866L107.537 198.029L116.225 196.992L125.218 209.341C126.18 209.999 126.867 210.987 127.148 212.117C127.429 213.247 127.285 214.441 126.743 215.472C126.202 216.504 125.3 217.301 124.21 217.713C123.119 218.125 121.915 218.123 120.825 217.707Z" fill="#FFB6B6"/>
<path d="M76.0618 338.021L81.838 338.021L84.5864 315.773L76.0604 315.774L76.0618 338.021Z" fill="#FFB6B6"/>
<path d="M74.5881 336.138L76.2141 336.138L82.562 333.56L85.9644 336.137H85.9648C87.8875 336.137 89.7315 336.9 91.0911 338.258C92.4506 339.615 93.2145 341.456 93.2146 343.376V343.611L74.5885 343.612L74.5881 336.138Z" fill="#2F2E41"/>
<path d="M98.4471 334.386L104.082 335.656L111.67 314.56L103.354 312.685L98.4471 334.386Z" fill="#FFB6B6"/>
<path d="M97.4252 332.225L99.0112 332.583L105.772 331.465L108.522 334.727C110.398 335.15 112.028 336.299 113.055 337.923C114.082 339.546 114.421 341.51 113.997 343.382L113.945 343.612L95.7766 339.516L97.4252 332.225Z" fill="#2F2E41"/>
<path d="M65.4863 223.584L70.71 282.02C70.71 282.02 68.7527 317.103 75.0684 329.448H84.2278L88.7628 278.816L89.3323 244.832L108.969 273.503L96.4618 328.62L107.735 329.626L128.031 269.812L105.733 213.66L65.4863 223.584Z" fill="#2F2E41"/>
<path d="M70.9572 130.526C78.3972 130.526 84.4286 124.503 84.4286 117.075C84.4286 109.646 78.3972 103.624 70.9572 103.624C63.5171 103.624 57.4857 109.646 57.4857 117.075C57.4857 124.503 63.5171 130.526 70.9572 130.526Z" fill="#FFB8B8"/>
<path d="M99.2377 143.344L83.587 138.609L81.5503 132.355L64.7667 135.075L61.2007 141.181L49.657 151.898L63.1818 212.958L62.7723 226.294C62.7723 226.294 71.4286 230.185 108.969 221.226C109.419 221.119 108.477 220.648 108.477 220.648L99.2377 143.344Z" fill="#3F3D56"/>
<path d="M114.101 210.651L95.7549 186.121L90.5538 142.647L90.7055 142.574C92.126 141.891 93.6942 141.572 95.2691 141.644C96.8439 141.717 98.376 142.179 99.7274 142.99C101.079 143.801 102.207 144.934 103.011 146.288C103.815 147.642 104.269 149.175 104.332 150.748L105.414 177.612L123.634 201.62L114.101 210.651Z" fill="#3F3D56"/>
<path d="M56.949 124.707C56.8551 124.579 56.7622 124.45 56.6701 124.32C56.6331 124.398 56.6036 124.479 56.5613 124.555L56.949 124.707Z" fill="#2F2E41"/>
<path d="M84.3576 107.236C83.4572 105.277 81.8516 103.728 79.86 102.897C77.886 102.102 75.6799 102.104 73.7073 102.903C71.9263 101.779 69.9475 100.889 67.8635 100.778C65.7796 100.668 63.5762 101.44 62.292 103.139C62.0052 103.588 61.6794 104.01 61.3185 104.402C60.2862 105.356 58.7174 105.219 57.3453 105.024C57.9607 105.55 58.5763 106.077 59.192 106.604C58.4471 106.798 57.702 106.992 56.9569 107.187C57.8263 107.713 58.6957 108.24 59.565 108.766C57.0411 110.279 55.894 113.58 56.197 116.578C56.4836 119.417 57.8563 122.013 59.4971 124.32C60.1516 122.941 60.0106 121.291 59.9998 119.737C59.9885 118.096 60.2793 116.232 61.5965 115.315C62.485 114.696 63.6275 114.669 64.699 114.675C70.1035 114.704 75.5019 115.041 80.8682 115.682C81.5964 115.714 82.3063 115.92 82.9384 116.282C84.1251 117.09 84.3563 118.758 84.4754 120.222C85.1024 117.806 85.4093 115.317 85.3881 112.821C85.4409 110.908 85.0898 109.005 84.3576 107.236Z" fill="#2F2E41"/>
<path d="M83.0332 270.518C94.7434 270.518 104.236 261.039 104.236 249.347C104.236 237.654 94.7434 228.176 83.0332 228.176C71.3231 228.176 61.8301 237.654 61.8301 249.347C61.8301 261.039 71.3231 270.518 83.0332 270.518Z" fill="#F0F0F0"/>
<path d="M83.0332 227.705C81.9433 227.705 80.8549 227.787 79.7773 227.95C79.226 228.03 78.6891 228.133 78.1565 228.26C74.2448 229.161 70.6607 231.128 67.8038 233.944C64.947 236.76 62.9299 240.313 61.9775 244.206C61.0251 248.1 61.1749 252.181 62.4102 255.995C63.6455 259.808 65.9177 263.204 68.9733 265.804C69.3361 266.109 69.7035 266.406 70.0852 266.688C72.8359 268.736 76.0344 270.102 79.4174 270.675C82.8004 271.247 86.2712 271.009 89.5441 269.981C92.817 268.952 95.7984 267.162 98.2431 264.758C100.688 262.354 102.526 259.405 103.606 256.153C104.686 252.901 104.977 249.44 104.456 246.053C103.934 242.667 102.615 239.453 100.606 236.676C98.5976 233.898 95.957 231.636 92.9019 230.077C89.8468 228.517 86.4644 227.705 83.0332 227.705ZM83.0332 270.047C78.6249 270.052 74.3312 268.645 70.7825 266.034C70.3962 265.752 70.024 265.46 69.6612 265.15C66.6842 262.642 64.4753 259.348 63.2878 255.644C62.1003 251.94 61.9824 247.977 62.9474 244.21C63.9125 240.442 65.9216 237.023 68.7442 234.343C71.5668 231.664 75.0886 229.833 78.9058 229.06C79.4333 228.952 79.9611 228.867 80.4983 228.802C81.3393 228.698 82.1859 228.646 83.0332 228.646C88.5317 228.646 93.8049 230.827 97.6929 234.709C101.581 238.591 103.765 243.857 103.765 249.347C103.765 254.837 101.581 260.102 97.6929 263.984C93.8049 267.866 88.5317 270.047 83.0332 270.047Z" fill="#3F3D56"/>
<path d="M72.6672 245.113H93.3992C94.1799 245.113 94.8127 244.481 94.8127 243.701C94.8127 242.922 94.1799 242.29 93.3992 242.29H72.6672C71.8865 242.29 71.2537 242.922 71.2537 243.701C71.2537 244.481 71.8865 245.113 72.6672 245.113Z" fill="#0D0745"/>
<path d="M72.6672 250.758H93.3992C94.1799 250.758 94.8127 250.126 94.8127 249.347C94.8127 248.567 94.1799 247.935 93.3992 247.935H72.6672C71.8865 247.935 71.2537 248.567 71.2537 249.347C71.2537 250.126 71.8865 250.758 72.6672 250.758Z" fill="#0D0745"/>
<path d="M72.6672 256.404H93.3992C94.1799 256.404 94.8127 255.772 94.8127 254.992C94.8127 254.213 94.1799 253.581 93.3992 253.581H72.6672C71.8865 253.581 71.2537 254.213 71.2537 254.992C71.2537 255.772 71.8865 256.404 72.6672 256.404Z" fill="#0D0745"/>
<path d="M84.3901 234.185C83.7056 234.08 83.0525 233.826 82.4769 233.441C81.9013 233.056 81.4173 232.55 81.0588 231.958C80.7003 231.367 80.4761 230.703 80.4021 230.016C80.328 229.328 80.4058 228.633 80.6301 227.978L67.3668 217.621L75.661 214.839L86.9844 225.101C88.0604 225.55 88.9341 226.377 89.4399 227.427C89.9456 228.476 90.0483 229.674 89.7285 230.794C89.4088 231.914 88.6887 232.877 87.7048 233.502C86.7209 234.128 85.5415 234.371 84.3901 234.185Z" fill="#FFB6B6"/>
<path d="M57.825 151.725L49.657 151.898C48.0547 153.372 46.7796 155.164 45.9141 157.161C45.0485 159.157 44.6117 161.312 44.6319 163.487V202.022L75.2814 227.608L85.1921 218.026L62.3794 193.209L57.825 151.725Z" fill="#3F3D56"/>
<path d="M424 60.0186H120.625V254.019H424V60.0186Z" fill="#E6E6E6"/>
<path d="M415.325 84.351H129.299V242.542H415.325V84.351Z" fill="white"/>
<path d="M423.87 59.8468H120.495V72.7158H423.87V59.8468Z" fill="#0D0745"/>
<path d="M130.073 68.8113C131.392 68.8113 132.461 67.7434 132.461 66.4261C132.461 65.1088 131.392 64.041 130.073 64.041C128.753 64.041 127.684 65.1088 127.684 66.4261C127.684 67.7434 128.753 68.8113 130.073 68.8113Z" fill="white"/>
<path d="M139.14 68.8113C140.459 68.8113 141.529 67.7434 141.529 66.4261C141.529 65.1088 140.459 64.041 139.14 64.041C137.821 64.041 136.751 65.1088 136.751 66.4261C136.751 67.7434 137.821 68.8113 139.14 68.8113Z" fill="white"/>
<path d="M148.207 68.8113C149.526 68.8113 150.596 67.7434 150.596 66.4261C150.596 65.1088 149.526 64.041 148.207 64.041C146.888 64.041 145.818 65.1088 145.818 66.4261C145.818 67.7434 146.888 68.8113 148.207 68.8113Z" fill="white"/>
<path d="M302.716 100.765H241.47V135.272H302.716V100.765Z" fill="#0D0745"/>
<path d="M302.716 144.882H241.47V182.011H302.716V144.882Z" fill="#E6E6E6"/>
<path d="M389.336 100.765H315.841V155.397H389.336V100.765Z" fill="#E6E6E6"/>
<path d="M389.336 171.495H315.841V226.128H389.336V171.495Z" fill="#0D0745"/>
<path d="M229.134 100.765H155.639V155.397H229.134V100.765Z" fill="#E6E6E6"/>
<path d="M292.702 37.4688L271.765 116.109L272.724 116.364L293.464 38.4596L292.702 37.4688Z" fill="#3F3D56"/>
<path d="M353.133 198.344L332.393 276.249L333.156 277.24L354.093 198.599L353.133 198.344Z" fill="#3F3D56"/>
<path d="M227.686 188.491H157.009C156.571 188.491 156.152 188.317 155.843 188.008C155.533 187.7 155.359 187.281 155.359 186.844C155.359 186.407 155.533 185.989 155.843 185.68C156.152 185.371 156.571 185.197 157.009 185.197H227.686C228.123 185.197 228.543 185.371 228.852 185.68C229.161 185.989 229.335 186.407 229.335 186.844C229.335 187.281 229.161 187.7 228.852 188.008C228.543 188.317 228.123 188.491 227.686 188.491Z" fill="#E6E6E6"/>
<path d="M227.686 179.081H157.009C156.571 179.081 156.152 178.908 155.843 178.599C155.533 178.29 155.359 177.872 155.359 177.435C155.359 176.998 155.533 176.579 155.843 176.27C156.152 175.962 156.571 175.788 157.009 175.788H227.686C228.123 175.788 228.543 175.962 228.852 176.27C229.161 176.579 229.335 176.998 229.335 177.435C229.335 177.872 229.161 178.29 228.852 178.599C228.543 178.908 228.123 179.081 227.686 179.081Z" fill="#E6E6E6"/>
<path d="M227.686 197.9H157.009C156.571 197.9 156.152 197.727 155.843 197.418C155.533 197.109 155.359 196.69 155.359 196.253C155.359 195.817 155.533 195.398 155.843 195.089C156.152 194.78 156.571 194.607 157.009 194.607H227.686C228.123 194.607 228.543 194.78 228.852 195.089C229.161 195.398 229.335 195.817 229.335 196.253C229.335 196.69 229.161 197.109 228.852 197.418C228.543 197.727 228.123 197.9 227.686 197.9Z" fill="#E6E6E6"/>
<path d="M227.686 207.309H157.009C156.571 207.309 156.152 207.136 155.843 206.827C155.533 206.518 155.359 206.099 155.359 205.663C155.359 205.226 155.533 204.807 155.843 204.498C156.152 204.19 156.571 204.016 157.009 204.016H227.686C228.123 204.016 228.543 204.19 228.852 204.498C229.161 204.807 229.335 205.226 229.335 205.663C229.335 206.099 229.161 206.518 228.852 206.827C228.543 207.136 228.123 207.309 227.686 207.309Z" fill="#E6E6E6"/>
<path d="M227.686 216.719H157.009C156.571 216.719 156.152 216.545 155.843 216.236C155.533 215.928 155.359 215.509 155.359 215.072C155.359 214.635 155.533 214.217 155.843 213.908C156.152 213.599 156.571 213.425 157.009 213.425H227.686C228.123 213.425 228.543 213.599 228.852 213.908C229.161 214.217 229.335 214.635 229.335 215.072C229.335 215.509 229.161 215.928 228.852 216.236C228.543 216.545 228.123 216.719 227.686 216.719Z" fill="#E6E6E6"/>
<path d="M227.686 226.128H157.009C156.571 226.128 156.152 225.954 155.843 225.646C155.533 225.337 155.359 224.918 155.359 224.481C155.359 224.045 155.533 223.626 155.843 223.317C156.152 223.008 156.571 222.835 157.009 222.835H227.686C228.123 222.835 228.543 223.008 228.852 223.317C229.161 223.626 229.335 224.045 229.335 224.481C229.335 224.918 229.161 225.337 228.852 225.646C228.543 225.954 228.123 226.128 227.686 226.128Z" fill="#E6E6E6"/>
<path d="M301.307 197.9H242.88C242.443 197.9 242.023 197.727 241.714 197.418C241.405 197.109 241.231 196.69 241.231 196.253C241.231 195.817 241.405 195.398 241.714 195.089C242.023 194.78 242.443 194.607 242.88 194.607H301.307C301.744 194.607 302.164 194.78 302.473 195.089C302.782 195.398 302.956 195.817 302.956 196.253C302.956 196.69 302.782 197.109 302.473 197.418C302.164 197.727 301.744 197.9 301.307 197.9Z" fill="#E6E6E6"/>
<path d="M301.307 207.309H242.88C242.443 207.309 242.023 207.136 241.714 206.827C241.405 206.518 241.231 206.099 241.231 205.663C241.231 205.226 241.405 204.807 241.714 204.498C242.023 204.19 242.443 204.016 242.88 204.016H301.307C301.744 204.016 302.164 204.19 302.473 204.498C302.782 204.807 302.956 205.226 302.956 205.663C302.956 206.099 302.782 206.518 302.473 206.827C302.164 207.136 301.744 207.309 301.307 207.309Z" fill="#E6E6E6"/>
<path d="M301.307 216.719H242.88C242.443 216.719 242.023 216.545 241.714 216.236C241.405 215.928 241.231 215.509 241.231 215.072C241.231 214.635 241.405 214.217 241.714 213.908C242.023 213.599 242.443 213.425 242.88 213.425H301.307C301.744 213.425 302.164 213.599 302.473 213.908C302.782 214.217 302.956 214.635 302.956 215.072C302.956 215.509 302.782 215.928 302.473 216.236C302.164 216.545 301.744 216.719 301.307 216.719Z" fill="#E6E6E6"/>
<path d="M301.307 226.128H242.88C242.443 226.128 242.023 225.954 241.714 225.646C241.405 225.337 241.231 224.918 241.231 224.481C241.231 224.045 241.405 223.626 241.714 223.317C242.023 223.008 242.443 222.835 242.88 222.835H301.307C301.744 222.835 302.164 223.008 302.473 223.317C302.782 223.626 302.956 224.045 302.956 224.481C302.956 224.918 302.782 225.337 302.473 225.646C302.164 225.954 301.744 226.128 301.307 226.128Z" fill="#E6E6E6"/>
<path d="M294.122 42.8124C305.833 42.8124 315.325 33.3338 315.325 21.6414C315.325 9.94902 305.833 0.470459 294.122 0.470459C282.412 0.470459 272.919 9.94902 272.919 21.6414C272.919 33.3338 282.412 42.8124 294.122 42.8124Z" fill="#F0F0F0"/>
<path d="M294.122 5.01626e-07C293.032 0.000130085 291.944 0.0819054 290.866 0.244641C290.315 0.32462 289.778 0.428101 289.246 0.55515C285.334 1.45543 281.75 3.42317 278.893 6.23884C276.036 9.05451 274.019 12.6074 273.067 16.501C272.114 20.3946 272.264 24.4759 273.499 28.2895C274.735 32.1031 277.007 35.499 280.062 38.0983C280.425 38.4041 280.793 38.7005 281.174 38.9828C283.925 41.0306 287.124 42.3969 290.507 42.9694C293.89 43.5418 297.36 43.3039 300.633 42.2752C303.906 41.2466 306.888 39.4566 309.332 37.0527C311.777 34.6487 313.615 31.6995 314.695 28.4476C315.775 25.1958 316.066 21.7344 315.545 18.3482C315.023 14.962 313.704 11.7478 311.695 8.97028C309.687 6.19271 307.046 3.93111 303.991 2.3716C300.936 0.812092 297.554 -0.000737154 294.122 5.01626e-07ZM294.122 42.3419C289.714 42.3466 285.42 40.9401 281.872 38.3288C281.485 38.0465 281.113 37.7549 280.75 37.4443C277.773 34.9369 275.564 31.6424 274.377 27.9387C273.189 24.235 273.071 20.2722 274.037 16.5046C275.002 12.7371 277.011 9.31742 279.833 6.63785C282.656 3.95828 286.178 2.12731 289.995 1.35494C290.522 1.24673 291.05 1.16205 291.587 1.09618C292.428 0.992197 293.275 0.940349 294.122 0.940931C299.621 0.940931 304.894 3.12187 308.782 7.00396C312.67 10.8861 314.854 16.1513 314.854 21.6414C314.854 27.1315 312.67 32.3968 308.782 36.2789C304.894 40.161 299.621 42.3419 294.122 42.3419Z" fill="#3F3D56"/>
<path d="M283.756 17.4072L304.488 17.4072C305.269 17.4072 305.902 16.7753 305.902 15.9958C305.902 15.2163 305.269 14.5844 304.488 14.5844L283.756 14.5844C282.976 14.5844 282.343 15.2163 282.343 15.9958C282.343 16.7753 282.976 17.4072 283.756 17.4072Z" fill="#0D0745"/>
<path d="M283.756 23.0528L304.488 23.0528C305.269 23.0528 305.902 22.4209 305.902 21.6414C305.902 20.8619 305.269 20.23 304.488 20.23L283.756 20.23C282.976 20.23 282.343 20.8619 282.343 21.6414C282.343 22.4209 282.976 23.0528 283.756 23.0528Z" fill="#0D0745"/>
<path d="M283.756 28.6984L304.488 28.6984C305.269 28.6984 305.902 28.0665 305.902 27.287C305.902 26.5075 305.269 25.8756 304.488 25.8756L283.756 25.8756C282.976 25.8756 282.343 26.5075 282.343 27.287C282.343 28.0665 282.976 28.6984 283.756 28.6984Z" fill="#0D0745"/>
<path d="M329.932 316.623C341.642 316.623 351.135 307.145 351.135 295.452C351.135 283.76 341.642 274.281 329.932 274.281C318.222 274.281 308.729 283.76 308.729 295.452C308.729 307.145 318.222 316.623 329.932 316.623Z" fill="#F0F0F0"/>
<path d="M329.932 273.811C328.842 273.811 327.754 273.893 326.676 274.056C326.125 274.136 325.588 274.239 325.055 274.366C321.144 275.266 317.56 277.234 314.703 280.05C311.846 282.865 309.829 286.418 308.876 290.312C307.924 294.206 308.074 298.287 309.309 302.1C310.544 305.914 312.817 309.31 315.872 311.909C316.235 312.215 316.602 312.511 316.984 312.794C319.735 314.842 322.933 316.208 326.316 316.78C329.699 317.353 333.17 317.115 336.443 316.086C339.716 315.058 342.697 313.268 345.142 310.864C347.587 308.46 349.425 305.51 350.505 302.259C351.585 299.007 351.876 295.545 351.355 292.159C350.833 288.773 349.514 285.559 347.505 282.781C345.497 280.004 342.856 277.742 339.801 276.183C336.746 274.623 333.363 273.81 329.932 273.811ZM329.932 316.153C325.524 316.158 321.23 314.751 317.681 312.14C317.295 311.857 316.923 311.566 316.56 311.255C313.583 308.748 311.374 305.453 310.187 301.75C308.999 298.046 308.881 294.083 309.846 290.316C310.811 286.548 312.821 283.128 315.643 280.449C318.466 277.769 321.988 275.938 325.805 275.166C326.332 275.058 326.86 274.973 327.397 274.907C328.238 274.803 329.085 274.751 329.932 274.752C335.431 274.752 340.704 276.933 344.592 280.815C348.48 284.697 350.664 289.962 350.664 295.452C350.664 300.942 348.48 306.208 344.592 310.09C340.704 313.972 335.431 316.153 329.932 316.153Z" fill="#3F3D56"/>
<path d="M319.566 291.218H340.298C341.079 291.218 341.712 290.586 341.712 289.807C341.712 289.027 341.079 288.395 340.298 288.395H319.566C318.785 288.395 318.153 289.027 318.153 289.807C318.153 290.586 318.785 291.218 319.566 291.218Z" fill="#0D0745"/>
<path d="M319.566 296.864H340.298C341.079 296.864 341.712 296.232 341.712 295.452C341.712 294.673 341.079 294.041 340.298 294.041H319.566C318.785 294.041 318.153 294.673 318.153 295.452C318.153 296.232 318.785 296.864 319.566 296.864Z" fill="#0D0745"/>
<path d="M319.566 302.509H340.298C341.079 302.509 341.712 301.877 341.712 301.098C341.712 300.318 341.079 299.687 340.298 299.687H319.566C318.785 299.687 318.153 300.318 318.153 301.098C318.153 301.877 318.785 302.509 319.566 302.509Z" fill="#0D0745"/>
<path d="M163.728 344H0.560992C0.41248 344 0.270201 343.94 0.165338 343.835C0.0604763 343.73 0.00158691 343.588 0.00158691 343.44C0.00158691 343.292 0.0604763 343.149 0.165338 343.044C0.270201 342.939 0.41248 342.88 0.560992 342.88H163.728C163.877 342.88 164.019 342.939 164.124 343.044C164.229 343.149 164.288 343.292 164.288 343.44C164.288 343.588 164.229 343.73 164.124 343.835C164.019 343.94 163.877 344 163.728 344Z" fill="#CACACA"/>
</g>
<defs>
<clipPath id="clip0_2_227">
<rect width="424" height="344" fill="white"/>
</clipPath>
</defs>
</svg>
