<svg width="33" height="28" viewBox="0 0 33 28" fill="none" xmlns="http://www.w3.org/2000/svg">
<path d="M9.80654 0.405003C10.4446 0.978636 10.4962 1.95188 9.92256 2.58996L5.28193 7.74621C4.99834 8.06203 4.59873 8.24895 4.17334 8.25539C3.74795 8.26184 3.34189 8.10071 3.03896 7.80422L0.454395 5.2261C-0.14502 4.62024 -0.14502 3.64055 0.454395 3.03469C1.05381 2.42883 2.03994 2.42883 2.63936 3.03469L4.06377 4.4591L7.61514 0.514574C8.18877 -0.123512 9.16201 -0.175075 9.8001 0.398558L9.80654 0.405003ZM9.80654 10.7175C10.4446 11.2911 10.4962 12.2644 9.92256 12.9025L5.28193 18.0587C4.99834 18.3745 4.59873 18.5614 4.17334 18.5679C3.74795 18.5743 3.34189 18.4132 3.03896 18.1167L0.454395 15.5386C-0.151465 14.9327 -0.151465 13.953 0.454395 13.3536C1.06025 12.7542 2.03994 12.7478 2.63936 13.3536L4.06377 14.7781L7.61514 10.8335C8.18877 10.1954 9.16201 10.1439 9.8001 10.7175H9.80654ZM14.4407 4.13039C14.4407 2.98957 15.3624 2.06789 16.5032 2.06789H30.9407C32.0815 2.06789 33.0032 2.98957 33.0032 4.13039C33.0032 5.27121 32.0815 6.19289 30.9407 6.19289H16.5032C15.3624 6.19289 14.4407 5.27121 14.4407 4.13039ZM14.4407 14.4429C14.4407 13.3021 15.3624 12.3804 16.5032 12.3804H30.9407C32.0815 12.3804 33.0032 13.3021 33.0032 14.4429C33.0032 15.5837 32.0815 16.5054 30.9407 16.5054H16.5032C15.3624 16.5054 14.4407 15.5837 14.4407 14.4429ZM10.3157 24.7554C10.3157 23.6146 11.2374 22.6929 12.3782 22.6929H30.9407C32.0815 22.6929 33.0032 23.6146 33.0032 24.7554C33.0032 25.8962 32.0815 26.8179 30.9407 26.8179H12.3782C11.2374 26.8179 10.3157 25.8962 10.3157 24.7554ZM3.09697 21.6616C3.91749 21.6616 4.70439 21.9876 5.28458 22.5678C5.86478 23.148 6.19072 23.9349 6.19072 24.7554C6.19072 25.5759 5.86478 26.3628 5.28458 26.943C4.70439 27.5232 3.91749 27.8491 3.09697 27.8491C2.27646 27.8491 1.48955 27.5232 0.909361 26.943C0.32917 26.3628 0.00322264 25.5759 0.00322264 24.7554C0.00322264 23.9349 0.32917 23.148 0.909361 22.5678C1.48955 21.9876 2.27646 21.6616 3.09697 21.6616Z" fill="#0D0745"/>
</svg>
