<svg width="86" height="88" viewBox="0 0 86 88" fill="none" xmlns="http://www.w3.org/2000/svg">
<path d="M66.5983 13.8053C82.5525 18.2755 80.5373 36.3329 76.0672 52.287C71.597 68.2411 50.2625 83.4817 34.3084 79.0116C18.3542 74.5414 5.63719 49.7599 10.1074 33.8058C14.5775 17.8517 50.6442 9.33512 66.5983 13.8053Z" fill="#5E72EB" fill-opacity="0.35"/>
<path d="M31.7143 31.375C29.1141 31.375 27 33.5051 27 36.125V59.875C27 62.4949 29.1141 64.625 31.7143 64.625H48.2143V56.3125C48.2143 54.3457 49.798 52.75 51.75 52.75H60V36.125C60 33.5051 57.8859 31.375 55.2857 31.375H31.7143ZM60 55.125H56.6632H51.75C51.1018 55.125 50.5714 55.6594 50.5714 56.3125V61.2629V64.625L52.9286 62.25L57.6429 57.5L60 55.125Z" fill="#0D0745"/>
</svg>
