<svg width="96" height="95" viewBox="0 0 96 95" fill="none" xmlns="http://www.w3.org/2000/svg">
<g id="Group 7">
<path id="Ellipse 47" d="M86.265 43.7545C93.9428 58.4368 79.4112 69.3438 64.7289 77.0215C50.0466 84.6992 24.327 79.6062 16.6493 64.924C8.97154 50.2417 18.3043 23.9977 32.9865 16.32C47.6688 8.64227 78.5873 29.0722 86.265 43.7545Z" fill="#5E72EB" fill-opacity="0.35"/>
<g id="Group">
<path id="Vector" d="M63.893 54.3184H62.746V52.8464C62.746 50.2704 60.637 48.2096 58.084 48.2096H49.648V44.1984C53.385 43.6832 56.271 40.5184 56.271 36.6544C56.271 32.4224 52.83 29 48.575 29C44.32 29 40.879 32.4224 40.879 36.6544C40.879 40.5184 43.765 43.6832 47.502 44.1984V48.2096H39.103C36.513 48.2096 34.441 50.3072 34.441 52.8464V54.3184H33.257C31.999 54.3184 31 55.312 31 56.5632V60.9792C31 62.2304 31.999 63.224 33.257 63.224H37.697C38.955 63.224 39.954 62.2304 39.954 60.9792V56.5632C39.954 55.312 38.955 54.3184 37.697 54.3184H36.55V52.8464C36.55 51.448 37.697 50.3072 39.103 50.3072H47.502V54.3184H46.355C45.097 54.3184 44.098 55.312 44.098 56.5632V60.9792C44.098 62.2304 45.097 63.224 46.355 63.224H50.795C52.053 63.224 53.052 62.2304 53.052 60.9792V56.5632C53.052 55.312 52.053 54.3184 50.795 54.3184H49.648V50.3072H58.047C59.453 50.3072 60.6 51.448 60.6 52.8464V54.3184H59.453C58.195 54.3184 57.196 55.312 57.196 56.5632V60.9792C57.196 62.2304 58.195 63.224 59.453 63.224H63.893C65.151 63.224 66.15 62.2304 66.15 60.9792V56.5632C66.15 55.312 65.151 54.3184 63.893 54.3184ZM42.988 36.6544C42.988 33.6 45.504 31.0976 48.575 31.0976C51.646 31.0976 54.162 33.6 54.162 36.6544C54.162 39.7088 51.646 42.2112 48.575 42.2112C45.504 42.2112 42.988 39.7088 42.988 36.6544ZM37.845 56.5632V60.9792C37.845 61.0528 37.771 61.1264 37.697 61.1264L33.109 60.9792L33.257 56.416L37.845 56.5632ZM50.943 56.5632V60.9792C50.943 61.0528 50.869 61.1264 50.795 61.1264L46.207 60.9792L46.355 56.416L50.943 56.5632ZM64.041 60.9792C64.041 61.0528 63.967 61.1264 63.893 61.1264L59.305 60.9792L59.453 56.416L64.041 56.5632V60.9792Z" fill="#0D0745"/>
<path id="Vector_2" d="M51.535 36.1392C51.942 35.6976 51.905 35.0352 51.498 34.6672C51.091 34.2624 50.388 34.2992 50.018 34.704L47.835 37.0592L47.058 36.2128C46.651 35.7712 45.985 35.7712 45.578 36.176C45.134 36.5808 45.134 37.2432 45.541 37.648L47.095 39.304C47.28 39.5248 47.576 39.6352 47.872 39.6352C48.168 39.6352 48.427 39.5248 48.649 39.304L51.535 36.1392Z" fill="#0D0745"/>
</g>
</g>
</svg>
