<svg width="380" height="280" viewBox="0 0 380 280" fill="none" xmlns="http://www.w3.org/2000/svg">
<g clip-path="url(#clip0_1_22)">
<path d="M140.848 172.52L62.185 189.081C59.9117 189.557 57.5423 189.112 55.5965 187.846C53.6507 186.579 52.2875 184.593 51.8058 182.323L38.3074 118.361C37.8309 116.091 38.2756 113.724 39.5439 111.781C40.8122 109.837 42.8006 108.476 45.0727 107.995L123.736 91.434C126.009 90.9581 128.379 91.4023 130.324 92.6691C132.27 93.9358 133.633 95.9218 134.115 98.1912L147.614 162.153C148.09 164.424 147.645 166.79 146.377 168.734C145.109 170.677 143.12 172.039 140.848 172.52ZM45.2853 109.002C43.2805 109.426 41.526 110.628 40.4069 112.343C39.2878 114.057 38.8954 116.146 39.3159 118.149L52.8143 182.111C53.2393 184.114 54.4422 185.866 56.159 186.984C57.8759 188.101 59.9666 188.493 61.9724 188.073L140.636 171.513C142.64 171.088 144.395 169.887 145.514 168.172C146.633 166.457 147.026 164.369 146.605 162.366L133.107 98.4035C132.682 96.4011 131.479 94.6488 129.762 93.531C128.045 92.4133 125.954 92.0214 123.949 92.4413L45.2853 109.002Z" fill="#3F3D56"/>
<path d="M118.848 112.524L79.1481 120.882C78.8007 120.963 78.4356 120.908 78.1267 120.73C77.8178 120.552 77.5881 120.264 77.484 119.923C77.4364 119.746 77.4255 119.56 77.452 119.378C77.4786 119.196 77.542 119.021 77.6384 118.865C77.7347 118.708 77.8621 118.572 78.0126 118.466C78.1631 118.36 78.3337 118.286 78.5139 118.248L118.926 109.74C120.504 110.629 120.006 112.281 118.848 112.524L118.848 112.524Z" fill="#EDEDED"/>
<path d="M120.316 119.479L80.6159 127.837C80.2685 127.918 79.9035 127.864 79.5945 127.686C79.2856 127.508 79.0559 127.219 78.9518 126.878C78.9042 126.701 78.8933 126.515 78.9199 126.333C78.9464 126.151 79.0098 125.977 79.1062 125.82C79.2026 125.663 79.3299 125.528 79.4804 125.422C79.631 125.316 79.8015 125.242 79.9817 125.204L120.394 116.696C121.972 117.584 121.474 119.236 120.316 119.479Z" fill="#EDEDED"/>
<path d="M72.8694 133.604L60.7533 136.155C60.3576 136.238 59.9451 136.161 59.6064 135.94C59.2677 135.72 59.0305 135.374 58.9467 134.979L55.9329 120.698C55.8499 120.303 55.9273 119.891 56.1481 119.553C56.3688 119.215 56.715 118.978 57.1105 118.894L69.2266 116.343C69.6223 116.26 70.0347 116.338 70.3733 116.558C70.712 116.779 70.9493 117.124 71.0332 117.519L74.047 131.8C74.13 132.195 74.0526 132.607 73.8318 132.945C73.611 133.284 73.2649 133.521 72.8694 133.604Z" fill="#EDEDED"/>
<path d="M123.206 133.745L62.6162 146.5C62.2688 146.581 61.9037 146.527 61.5948 146.349C61.2859 146.171 61.0562 145.882 60.9521 145.542C60.9045 145.364 60.8936 145.178 60.9201 144.996C60.9467 144.814 61.0101 144.64 61.1065 144.483C61.2028 144.326 61.3302 144.191 61.4807 144.085C61.6312 143.979 61.8018 143.905 61.982 143.867L123.285 130.961C124.862 131.849 124.364 133.501 123.206 133.745Z" fill="#EDEDED"/>
<path d="M124.674 140.702L64.0845 153.458C63.7371 153.538 63.372 153.484 63.0631 153.306C62.7542 153.128 62.5244 152.84 62.4203 152.499C62.3727 152.321 62.3618 152.136 62.3884 151.954C62.4149 151.772 62.4783 151.597 62.5747 151.44C62.6711 151.283 62.7984 151.148 62.949 151.042C63.0995 150.936 63.2701 150.862 63.4503 150.824L124.753 137.918C126.331 138.806 125.832 140.458 124.674 140.702Z" fill="#CCCCCC"/>
<path d="M126.142 147.655L65.5518 160.41C65.2044 160.491 64.8393 160.437 64.5304 160.259C64.2214 160.081 63.9917 159.792 63.8876 159.452C63.84 159.274 63.8291 159.088 63.8557 158.906C63.8822 158.724 63.9456 158.55 64.042 158.393C64.1384 158.236 64.2657 158.101 64.4163 157.995C64.5668 157.889 64.7373 157.815 64.9175 157.777L126.22 144.871C127.798 145.759 127.299 147.411 126.142 147.655Z" fill="#EDEDED"/>
<path d="M127.61 154.611L67.0199 167.367C66.6725 167.448 66.3074 167.394 65.9985 167.216C65.6896 167.038 65.4599 166.749 65.3558 166.408C65.3082 166.231 65.2973 166.045 65.3238 165.863C65.3504 165.681 65.4138 165.506 65.5101 165.35C65.6065 165.193 65.7339 165.057 65.8844 164.951C66.0349 164.846 66.2055 164.771 66.3857 164.733L127.688 151.828C129.266 152.716 128.767 154.368 127.61 154.611Z" fill="#EDEDED"/>
<path d="M129.077 161.565L68.4873 174.32C68.1399 174.401 67.7749 174.347 67.4659 174.169C67.157 173.991 66.9273 173.702 66.8232 173.362C66.7756 173.184 66.7647 172.998 66.7913 172.816C66.8178 172.634 66.8812 172.46 66.9776 172.303C67.0739 172.146 67.2013 172.011 67.3518 171.905C67.5023 171.799 67.6729 171.725 67.8531 171.687L129.156 158.781C130.734 159.669 130.235 161.321 129.077 161.565Z" fill="#EDEDED"/>
<path d="M138.742 129.721C138.604 129.971 138.487 130.231 138.39 130.499L113.585 136.647L109.27 132.188L101.682 137.813L108.553 146.447C109.108 147.145 109.875 147.644 110.738 147.869C111.601 148.095 112.514 148.034 113.34 147.697L140.255 136.712C141.14 137.363 142.202 137.729 143.3 137.761C144.398 137.794 145.48 137.493 146.402 136.896C147.324 136.3 148.043 135.437 148.462 134.423C148.881 133.409 148.982 132.292 148.749 131.219C148.517 130.147 147.964 129.17 147.162 128.42C146.361 127.669 145.35 127.18 144.264 127.018C143.177 126.855 142.067 127.027 141.081 127.51C140.094 127.993 139.279 128.764 138.742 129.721Z" fill="#FFB8B8"/>
<path d="M54.0748 184.431C54.8481 184.192 55.5597 183.787 56.1593 183.244C56.759 182.701 57.2321 182.034 57.5455 181.289C57.8589 180.543 58.0048 179.738 57.9731 178.931C57.9413 178.123 57.7327 177.332 57.3618 176.614L74.4317 129.226L62.5772 127.128L49.5256 174.368C48.3584 175.07 47.4898 176.176 47.0843 177.475C46.6787 178.774 46.7644 180.177 47.3252 181.417C47.8859 182.658 48.8828 183.65 50.1268 184.205C51.3708 184.76 52.7755 184.841 54.0748 184.431Z" fill="#FFB8B8"/>
<path d="M72.2638 137.638L60.5593 133.151C60.2263 133.024 59.9248 132.826 59.6752 132.571C59.4256 132.317 59.2339 132.011 59.1132 131.676C58.9924 131.341 58.9453 130.984 58.9753 130.629C59.0052 130.273 59.1114 129.929 59.2866 129.619L65.4268 118.745C66.0908 117.048 67.4015 115.683 69.0717 114.949C70.7418 114.215 72.6352 114.172 74.3368 114.83C76.0383 115.488 77.4093 116.793 78.1493 118.459C78.8892 120.125 78.9378 122.016 78.2843 123.717L75.5759 135.863C75.4983 136.211 75.3465 136.538 75.131 136.821C74.9154 137.105 74.6411 137.339 74.3268 137.508C74.0125 137.676 73.6655 137.775 73.3095 137.797C72.9535 137.82 72.5968 137.765 72.2638 137.638Z" fill="#0D0745"/>
<path d="M98.6823 273.399H105L108.006 249.059L98.6813 249.06L98.6823 273.399Z" fill="#FFB8B8"/>
<path d="M97.0706 271.339L109.513 271.338H109.513C110.554 271.338 111.586 271.543 112.548 271.941C113.51 272.339 114.384 272.922 115.12 273.658C115.856 274.393 116.44 275.266 116.839 276.227C117.237 277.188 117.442 278.218 117.442 279.258V279.515L97.071 279.516L97.0706 271.339Z" fill="#2F2E41"/>
<path d="M63.1245 273.399H69.4419L72.4479 249.059L63.1234 249.06L63.1245 273.399Z" fill="#FFB8B8"/>
<path d="M61.5128 271.339L73.9548 271.338H73.9553C74.9966 271.338 76.0277 271.543 76.9897 271.941C77.9517 272.339 78.8258 272.922 79.5621 273.658C80.2984 274.393 80.8824 275.266 81.2809 276.227C81.6794 277.188 81.8845 278.218 81.8845 279.258V279.515L61.5131 279.516L61.5128 271.339Z" fill="#2F2E41"/>
<path d="M69.7476 263.603H61.7525C61.4387 263.603 61.1281 263.539 60.8397 263.416C60.5512 263.292 60.2908 263.112 60.0743 262.885C59.8577 262.658 59.6895 262.39 59.5798 262.096C59.4701 261.802 59.4212 261.49 59.4361 261.176L63.2338 179.682L63.4731 179.676L102.081 178.67L109.636 260.211C109.665 260.517 109.633 260.825 109.542 261.119C109.45 261.412 109.302 261.684 109.104 261.919C108.906 262.154 108.664 262.348 108.391 262.489C108.118 262.63 107.819 262.715 107.513 262.739L98.5323 263.456C97.9682 263.501 97.4071 263.339 96.9546 262.999C96.5022 262.66 96.1896 262.166 96.0757 261.613L84.5888 203.566C84.5575 203.39 84.4639 203.231 84.325 203.117C84.1861 203.004 84.0111 202.944 83.8318 202.949H83.8287C83.6488 202.945 83.4735 203.006 83.3347 203.12C83.196 203.235 83.1031 203.395 83.073 203.572L72.023 261.734C71.9183 262.26 71.6345 262.734 71.2197 263.074C70.8049 263.415 70.2847 263.602 69.7476 263.603Z" fill="#2F2E41"/>
<path d="M84.3932 106.999C91.3835 106.999 97.0503 101.34 97.0503 94.3577C97.0503 87.3759 91.3835 81.716 84.3932 81.716C77.4029 81.716 71.7361 87.3759 71.7361 94.3577C71.7361 101.34 77.4029 106.999 84.3932 106.999Z" fill="#FFB8B8"/>
<path d="M80.1491 189.232C74.1165 189.232 67.9202 187.648 62.7835 182.966C62.5102 182.718 62.2991 182.41 62.1675 182.066C62.036 181.721 61.9875 181.351 62.0262 180.984C62.576 176.05 65.243 150.575 63.7411 133.558C63.448 130.379 63.8985 127.176 65.0572 124.201C66.2158 121.226 68.0509 118.561 70.4175 116.415C72.7427 114.275 75.534 112.704 78.5713 111.825C81.6086 110.947 84.8088 110.785 87.9192 111.354C88.0769 111.382 88.2345 111.412 88.3923 111.442C98.5256 113.401 105.566 122.767 104.77 133.23C103.607 148.496 102.565 169.146 104.201 180.824C104.269 181.301 104.186 181.788 103.962 182.216C103.739 182.644 103.388 182.992 102.957 183.21C99.2336 185.089 89.9055 189.232 80.1491 189.232Z" fill="#0D0745"/>
<path d="M96.6651 138.547C96.3681 138.35 96.1173 138.091 95.9297 137.788C95.7421 137.485 95.6221 137.145 95.578 136.792L94.036 124.444C93.5465 122.688 93.7741 120.81 94.6689 119.221C95.5638 117.632 97.0528 116.463 98.8096 115.969C100.566 115.475 102.447 115.697 104.041 116.587C105.634 117.476 106.809 118.96 107.308 120.713L112.387 132.12C112.532 132.445 112.605 132.798 112.601 133.154C112.597 133.511 112.516 133.862 112.364 134.184C112.212 134.506 111.992 134.792 111.72 135.022C111.447 135.252 111.128 135.42 110.785 135.516L98.7066 138.872C98.3629 138.968 98.0026 138.989 97.6503 138.933C97.298 138.876 96.9619 138.745 96.6651 138.547Z" fill="#0D0745"/>
<path d="M79.9747 106.821C78.7767 106.843 77.5862 106.628 76.4719 106.188C75.9816 105.999 75.4727 105.844 74.9833 105.655C70.6614 103.988 67.8144 99.3903 67.7125 94.7639C67.6105 90.1374 70.0093 85.6469 73.5713 82.6876C77.1334 79.7283 81.7471 78.209 86.3669 77.8577C91.3433 77.4792 96.9468 78.7397 99.7275 82.8789C100.468 83.9807 100.985 85.3175 100.547 86.6478C100.415 87.0493 100.181 87.4092 99.8664 87.6917C98.6246 88.7952 97.3865 87.9654 96.1206 87.8921C94.3805 87.7914 92.8177 89.1981 92.256 90.8461C91.6943 92.494 91.9415 94.3083 92.3951 95.9892C92.7406 97.0006 92.9584 98.0511 93.0435 99.1165C93.0801 99.6506 92.9795 100.185 92.7512 100.67C92.523 101.154 92.1747 101.572 91.7392 101.885C90.6519 102.541 89.224 102.161 88.1361 101.506C87.0481 100.851 86.108 99.9393 84.9329 99.4571C83.7577 98.9748 82.1788 99.0818 81.4948 100.151C81.2775 100.54 81.1303 100.965 81.0602 101.405C80.447 104.195 80.5879 104.031 79.9747 106.821Z" fill="#2F2E41"/>
<path d="M255.29 89.5588H174.898C172.575 89.5562 170.349 88.6335 168.706 86.9931C167.064 85.3527 166.14 83.1287 166.138 80.8088V15.4412C166.14 13.1213 167.064 10.8972 168.706 9.25686C170.349 7.61648 172.575 6.69377 174.898 6.69116H255.29C257.612 6.69377 259.839 7.61648 261.482 9.25686C263.124 10.8972 264.048 13.1213 264.05 15.4412V80.8088C264.048 83.1287 263.124 85.3527 261.482 86.9931C259.839 88.6335 257.612 89.5562 255.29 89.5588ZM174.898 7.72057C172.849 7.72289 170.884 8.53705 169.435 9.98444C167.986 11.4318 167.17 13.3942 167.168 15.4412V80.8088C167.17 82.8557 167.986 84.8181 169.435 86.2655C170.884 87.7129 172.849 88.5271 174.898 88.5294H255.29C257.339 88.5271 259.304 87.7129 260.753 86.2655C262.202 84.8181 263.017 82.8557 263.02 80.8088V15.4412C263.017 13.3942 262.202 11.4318 260.753 9.98444C259.304 8.53705 257.339 7.72289 255.29 7.72057H174.898Z" fill="#3F3D56"/>
<path d="M246.152 26.321H205.58C205.223 26.3282 204.877 26.2 204.611 25.9622C204.346 25.7243 204.181 25.3947 204.149 25.0399C204.139 24.8562 204.167 24.6725 204.231 24.4998C204.294 24.3272 204.392 24.1693 204.519 24.0358C204.646 23.9023 204.798 23.796 204.967 23.7233C205.137 23.6506 205.319 23.6132 205.503 23.6132H246.803C248.164 24.8073 247.335 26.321 246.152 26.321Z" fill="#EDEDED"/>
<path d="M246.152 33.4291H205.58C205.223 33.4363 204.877 33.3081 204.611 33.0703C204.346 32.8324 204.181 32.5028 204.149 32.148C204.139 31.9643 204.167 31.7806 204.231 31.6079C204.294 31.4353 204.392 31.2774 204.519 31.1439C204.646 31.0104 204.798 30.9041 204.967 30.8314C205.137 30.7587 205.319 30.7213 205.503 30.7213H246.803C248.164 31.9154 247.335 33.4291 246.152 33.4291Z" fill="#EDEDED"/>
<path d="M196.809 37.4762H184.426C184.022 37.4758 183.634 37.3152 183.349 37.0297C183.063 36.7442 182.902 36.357 182.901 35.9532V21.3587C182.902 20.9549 183.063 20.5678 183.349 20.2823C183.634 19.9967 184.022 19.8361 184.426 19.8357H196.809C197.213 19.8363 197.601 19.9969 197.886 20.2824C198.172 20.5679 198.333 20.955 198.334 21.3587V35.9532C198.333 36.357 198.172 36.7442 197.887 37.0297C197.601 37.3152 197.213 37.4758 196.809 37.4762Z" fill="#3F3D56"/>
<path d="M246.034 47.9829H184.113C183.756 47.9902 183.41 47.8619 183.145 47.6241C182.879 47.3863 182.714 47.0567 182.683 46.7018C182.673 46.5182 182.7 46.3344 182.764 46.1618C182.828 45.9892 182.926 45.8313 183.052 45.6978C183.179 45.5643 183.332 45.4579 183.501 45.3853C183.67 45.3126 183.852 45.2751 184.036 45.2751H246.686C248.046 46.4692 247.217 47.9829 246.034 47.9829Z" fill="#EDEDED"/>
<path d="M246.034 55.0931H184.113C183.756 55.1003 183.41 54.972 183.145 54.7342C182.879 54.4964 182.714 54.1668 182.683 53.812C182.673 53.6283 182.7 53.4445 182.764 53.2719C182.828 53.0993 182.926 52.9414 183.052 52.8079C183.179 52.6744 183.332 52.568 183.501 52.4954C183.67 52.4227 183.852 52.3852 184.036 52.3852H246.686C248.046 53.5793 247.217 55.0931 246.034 55.0931Z" fill="#EDEDED"/>
<path d="M246.034 62.1986H184.113C183.756 62.2058 183.41 62.0776 183.145 61.8397C182.879 61.6019 182.714 61.2723 182.683 60.9175C182.673 60.7338 182.7 60.55 182.764 60.3774C182.828 60.2048 182.926 60.0469 183.052 59.9134C183.179 59.7799 183.332 59.6735 183.501 59.6009C183.67 59.5282 183.852 59.4907 184.036 59.4907H246.686C248.046 60.6848 247.217 62.1986 246.034 62.1986Z" fill="#EDEDED"/>
<path d="M246.034 69.3082H184.113C183.756 69.3155 183.41 69.1872 183.145 68.9494C182.879 68.7116 182.714 68.382 182.683 68.0271C182.673 67.8435 182.7 67.6597 182.764 67.4871C182.828 67.3145 182.926 67.1566 183.052 67.0231C183.179 66.8896 183.332 66.7832 183.501 66.7106C183.67 66.6379 183.852 66.6004 184.036 66.6004H246.686C248.046 67.7945 247.217 69.3082 246.034 69.3082Z" fill="#EDEDED"/>
<path d="M246.034 76.4143H184.113C183.756 76.4215 183.41 76.2932 183.145 76.0554C182.879 75.8176 182.714 75.488 182.683 75.1331C182.673 74.9495 182.7 74.7657 182.764 74.5931C182.828 74.4205 182.926 74.2626 183.052 74.129C183.179 73.9955 183.332 73.8892 183.501 73.8165C183.67 73.7439 183.852 73.7064 184.036 73.7064H246.686C248.046 74.9005 247.217 76.4143 246.034 76.4143Z" fill="#EDEDED"/>
<path d="M237.769 0C238.452 0.000780578 239.107 0.27217 239.59 0.754631C240.073 1.23709 240.344 1.89123 240.345 2.57353V10.8088C240.344 11.4911 240.073 12.1453 239.59 12.6277C239.107 13.1102 238.452 13.3816 237.769 13.3824H192.419C191.736 13.3816 191.081 13.1102 190.598 12.6277C190.115 12.1453 189.844 11.4911 189.843 10.8088V2.57353C189.844 1.89123 190.115 1.23709 190.598 0.754631C191.081 0.27217 191.736 0.000780578 192.419 0" fill="#0D0745"/>
<path d="M371.239 170.368H290.848C288.525 170.365 286.298 169.442 284.656 167.802C283.014 166.162 282.09 163.937 282.087 161.618V96.25C282.09 93.9302 283.014 91.7061 284.656 90.0657C286.298 88.4253 288.525 87.5026 290.848 87.5H371.239C373.562 87.5026 375.789 88.4253 377.431 90.0657C379.074 91.7061 379.997 93.9302 380 96.25V161.618C379.997 163.937 379.074 166.162 377.431 167.802C375.789 169.442 373.562 170.365 371.239 170.368ZM290.848 88.5294C288.798 88.5317 286.833 89.3459 285.384 90.7933C283.935 92.2407 283.12 94.2031 283.118 96.25V161.618C283.12 163.665 283.935 165.627 285.384 167.074C286.833 168.522 288.798 169.336 290.848 169.338H371.239C373.289 169.336 375.254 168.522 376.703 167.074C378.152 165.627 378.967 163.665 378.969 161.618V96.25C378.967 94.2031 378.152 92.2407 376.703 90.7933C375.254 89.3459 373.289 88.5317 371.239 88.5294H290.848Z" fill="#3F3D56"/>
<path d="M362.102 107.13H321.529C321.173 107.137 320.827 107.009 320.561 106.771C320.296 106.533 320.13 106.204 320.099 105.849C320.089 105.665 320.117 105.481 320.18 105.309C320.244 105.136 320.342 104.978 320.468 104.845C320.595 104.711 320.748 104.605 320.917 104.532C321.086 104.459 321.268 104.422 321.452 104.422H362.753C364.113 105.616 363.285 107.13 362.102 107.13Z" fill="#3F3D56"/>
<path d="M362.102 114.238H321.529C321.173 114.245 320.827 114.117 320.561 113.879C320.296 113.641 320.13 113.312 320.099 112.957C320.089 112.773 320.117 112.589 320.18 112.417C320.244 112.244 320.342 112.086 320.468 111.953C320.595 111.819 320.748 111.713 320.917 111.64C321.086 111.568 321.268 111.53 321.452 111.53H362.753C364.113 112.724 363.285 114.238 362.102 114.238Z" fill="#3F3D56"/>
<path d="M312.758 118.285H300.376C299.972 118.285 299.584 118.124 299.298 117.839C299.012 117.553 298.851 117.166 298.851 116.762V102.168C298.851 101.764 299.012 101.377 299.298 101.091C299.584 100.806 299.972 100.645 300.376 100.645H312.758C313.163 100.645 313.55 100.806 313.836 101.091C314.122 101.377 314.283 101.764 314.283 102.168V116.762C314.283 117.166 314.122 117.553 313.836 117.839C313.55 118.124 313.163 118.285 312.758 118.285Z" fill="#3F3D56"/>
<path d="M361.715 157.917H349.332C348.928 157.917 348.54 157.756 348.255 157.471C347.969 157.185 347.808 156.798 347.807 156.394V147.976C347.808 147.573 347.969 147.185 348.255 146.9C348.54 146.614 348.928 146.454 349.332 146.453H361.715C362.119 146.454 362.507 146.615 362.792 146.9C363.078 147.186 363.239 147.573 363.24 147.976V156.394C363.239 156.798 363.078 157.185 362.793 157.471C362.507 157.756 362.119 157.917 361.715 157.917Z" fill="#3F3D56"/>
<path d="M361.984 128.792H300.062C299.706 128.799 299.36 128.671 299.094 128.433C298.829 128.195 298.664 127.865 298.632 127.511C298.622 127.327 298.65 127.143 298.713 126.971C298.777 126.798 298.875 126.64 299.002 126.507C299.128 126.373 299.281 126.267 299.45 126.194C299.619 126.121 299.802 126.084 299.986 126.084H362.635C363.996 127.278 363.167 128.792 361.984 128.792Z" fill="#EDEDED"/>
<path d="M361.984 135.902H300.062C299.706 135.909 299.36 135.781 299.094 135.543C298.829 135.305 298.664 134.976 298.632 134.621C298.622 134.437 298.65 134.253 298.713 134.081C298.777 133.908 298.875 133.75 299.002 133.617C299.128 133.483 299.281 133.377 299.45 133.304C299.619 133.232 299.802 133.194 299.986 133.194H362.635C363.996 134.388 363.167 135.902 361.984 135.902Z" fill="#EDEDED"/>
<path d="M361.984 143.007H300.062C299.706 143.015 299.36 142.886 299.094 142.649C298.829 142.411 298.664 142.081 298.632 141.726C298.622 141.543 298.65 141.359 298.713 141.186C298.777 141.014 298.875 140.856 299.002 140.722C299.128 140.589 299.281 140.482 299.45 140.41C299.619 140.337 299.802 140.3 299.986 140.3H362.635C363.996 141.494 363.167 143.007 361.984 143.007Z" fill="#EDEDED"/>
<path d="M329.518 150.117H300.062C299.706 150.124 299.36 149.996 299.094 149.758C298.829 149.52 298.664 149.191 298.632 148.836C298.622 148.652 298.65 148.469 298.713 148.296C298.777 148.123 298.875 147.965 299.002 147.832C299.128 147.698 299.281 147.592 299.45 147.519C299.619 147.447 299.802 147.409 299.986 147.409H330.17C331.53 148.603 330.701 150.117 329.518 150.117Z" fill="#EDEDED"/>
<path d="M329.518 157.223H300.062C299.706 157.23 299.36 157.102 299.094 156.864C298.829 156.626 298.664 156.297 298.632 155.942C298.622 155.758 298.65 155.575 298.713 155.402C298.777 155.229 298.875 155.071 299.002 154.938C299.128 154.804 299.281 154.698 299.45 154.625C299.619 154.553 299.802 154.515 299.986 154.515H330.17C331.53 155.709 330.701 157.223 329.518 157.223Z" fill="#EDEDED"/>
<path d="M353.718 94.1912H308.369C307.686 94.1904 307.031 93.919 306.548 93.4366C306.065 92.9541 305.793 92.3 305.792 91.6177V83.3824C305.793 82.7001 306.065 82.0459 306.548 81.5635C307.031 81.081 307.686 80.8096 308.369 80.8088H353.718C354.401 80.8096 355.056 81.081 355.539 81.5635C356.022 82.0459 356.294 82.7001 356.295 83.3824V91.6177C356.294 92.3 356.022 92.9541 355.539 93.4366C355.056 93.919 354.401 94.1904 353.718 94.1912Z" fill="#0D0745"/>
<path d="M196.857 280H0.515331C0.378657 280 0.24758 279.946 0.150937 279.849C0.0542933 279.753 0 279.622 0 279.485C0 279.349 0.0542933 279.218 0.150937 279.121C0.24758 279.025 0.378657 278.971 0.515331 278.971H196.857C196.993 278.971 197.124 279.025 197.221 279.121C197.318 279.218 197.372 279.349 197.372 279.485C197.372 279.622 197.318 279.753 197.221 279.849C197.124 279.946 196.993 280 196.857 280Z" fill="#3F3D56"/>
<path d="M49.8654 15.3337C51.7059 15.3337 53.198 13.8435 53.198 12.0052C53.198 10.1668 51.7059 8.67661 49.8654 8.67661C48.0249 8.67661 46.5328 10.1668 46.5328 12.0052C46.5328 13.8435 48.0249 15.3337 49.8654 15.3337Z" fill="#F2F2F2"/>
<path d="M49.8654 28.5994C51.7059 28.5994 53.198 27.1091 53.198 25.2708C53.198 23.4325 51.7059 21.9423 49.8654 21.9423C48.0249 21.9423 46.5328 23.4325 46.5328 25.2708C46.5328 27.1091 48.0249 28.5994 49.8654 28.5994Z" fill="#F2F2F2"/>
<path d="M49.8654 41.865C51.7059 41.865 53.198 40.3748 53.198 38.5365C53.198 36.6982 51.7059 35.2079 49.8654 35.2079C48.0249 35.2079 46.5328 36.6982 46.5328 38.5365C46.5328 40.3748 48.0249 41.865 49.8654 41.865Z" fill="#F2F2F2"/>
<path d="M49.8654 55.1307C51.7059 55.1307 53.198 53.6405 53.198 51.8022C53.198 49.9638 51.7059 48.4736 49.8654 48.4736C48.0249 48.4736 46.5328 49.9638 46.5328 51.8022C46.5328 53.6405 48.0249 55.1307 49.8654 55.1307Z" fill="#F2F2F2"/>
<path d="M63.7793 15.3337C65.6199 15.3337 67.1119 13.8435 67.1119 12.0052C67.1119 10.1668 65.6199 8.67661 63.7793 8.67661C61.9388 8.67661 60.4467 10.1668 60.4467 12.0052C60.4467 13.8435 61.9388 15.3337 63.7793 15.3337Z" fill="#F2F2F2"/>
<path d="M63.7793 28.5994C65.6199 28.5994 67.1119 27.1091 67.1119 25.2708C67.1119 23.4325 65.6199 21.9423 63.7793 21.9423C61.9388 21.9423 60.4467 23.4325 60.4467 25.2708C60.4467 27.1091 61.9388 28.5994 63.7793 28.5994Z" fill="#F2F2F2"/>
<path d="M63.7793 41.865C65.6199 41.865 67.1119 40.3748 67.1119 38.5365C67.1119 36.6982 65.6199 35.2079 63.7793 35.2079C61.9388 35.2079 60.4467 36.6982 60.4467 38.5365C60.4467 40.3748 61.9388 41.865 63.7793 41.865Z" fill="#F2F2F2"/>
<path d="M63.7793 55.1307C65.6199 55.1307 67.1119 53.6405 67.1119 51.8022C67.1119 49.9638 65.6199 48.4736 63.7793 48.4736C61.9388 48.4736 60.4467 49.9638 60.4467 51.8022C60.4467 53.6405 61.9388 55.1307 63.7793 55.1307Z" fill="#F2F2F2"/>
<path d="M77.6933 15.3337C79.5338 15.3337 81.0259 13.8435 81.0259 12.0052C81.0259 10.1668 79.5338 8.67661 77.6933 8.67661C75.8527 8.67661 74.3607 10.1668 74.3607 12.0052C74.3607 13.8435 75.8527 15.3337 77.6933 15.3337Z" fill="#F2F2F2"/>
<path d="M77.6933 28.5994C79.5338 28.5994 81.0259 27.1091 81.0259 25.2708C81.0259 23.4325 79.5338 21.9423 77.6933 21.9423C75.8527 21.9423 74.3607 23.4325 74.3607 25.2708C74.3607 27.1091 75.8527 28.5994 77.6933 28.5994Z" fill="#F2F2F2"/>
<path d="M77.6933 41.865C79.5338 41.865 81.0259 40.3748 81.0259 38.5365C81.0259 36.6982 79.5338 35.2079 77.6933 35.2079C75.8527 35.2079 74.3607 36.6982 74.3607 38.5365C74.3607 40.3748 75.8527 41.865 77.6933 41.865Z" fill="#F2F2F2"/>
<path d="M77.6933 55.1307C79.5338 55.1307 81.0259 53.6405 81.0259 51.8022C81.0259 49.9638 79.5338 48.4736 77.6933 48.4736C75.8527 48.4736 74.3607 49.9638 74.3607 51.8022C74.3607 53.6405 75.8527 55.1307 77.6933 55.1307Z" fill="#F2F2F2"/>
<path d="M91.6072 15.3337C93.4478 15.3337 94.9398 13.8435 94.9398 12.0052C94.9398 10.1668 93.4478 8.67661 91.6072 8.67661C89.7667 8.67661 88.2747 10.1668 88.2747 12.0052C88.2747 13.8435 89.7667 15.3337 91.6072 15.3337Z" fill="#F2F2F2"/>
<path d="M91.6072 28.5994C93.4478 28.5994 94.9398 27.1091 94.9398 25.2708C94.9398 23.4325 93.4478 21.9423 91.6072 21.9423C89.7667 21.9423 88.2747 23.4325 88.2747 25.2708C88.2747 27.1091 89.7667 28.5994 91.6072 28.5994Z" fill="#F2F2F2"/>
<path d="M91.6072 41.865C93.4478 41.865 94.9398 40.3748 94.9398 38.5365C94.9398 36.6982 93.4478 35.2079 91.6072 35.2079C89.7667 35.2079 88.2747 36.6982 88.2747 38.5365C88.2747 40.3748 89.7667 41.865 91.6072 41.865Z" fill="#F2F2F2"/>
<path d="M91.6072 55.1307C93.4478 55.1307 94.9398 53.6405 94.9398 51.8022C94.9398 49.9638 93.4478 48.4736 91.6072 48.4736C89.7667 48.4736 88.2747 49.9638 88.2747 51.8022C88.2747 53.6405 89.7667 55.1307 91.6072 55.1307Z" fill="#F2F2F2"/>
<path d="M105.521 15.3337C107.362 15.3337 108.854 13.8435 108.854 12.0052C108.854 10.1668 107.362 8.67661 105.521 8.67661C103.681 8.67661 102.189 10.1668 102.189 12.0052C102.189 13.8435 103.681 15.3337 105.521 15.3337Z" fill="#F2F2F2"/>
<path d="M105.521 28.5994C107.362 28.5994 108.854 27.1091 108.854 25.2708C108.854 23.4325 107.362 21.9423 105.521 21.9423C103.681 21.9423 102.189 23.4325 102.189 25.2708C102.189 27.1091 103.681 28.5994 105.521 28.5994Z" fill="#F2F2F2"/>
<path d="M105.521 41.865C107.362 41.865 108.854 40.3748 108.854 38.5365C108.854 36.6982 107.362 35.2079 105.521 35.2079C103.681 35.2079 102.189 36.6982 102.189 38.5365C102.189 40.3748 103.681 41.865 105.521 41.865Z" fill="#F2F2F2"/>
<path d="M105.521 55.1307C107.362 55.1307 108.854 53.6405 108.854 51.8022C108.854 49.9638 107.362 48.4736 105.521 48.4736C103.681 48.4736 102.189 49.9638 102.189 51.8022C102.189 53.6405 103.681 55.1307 105.521 55.1307Z" fill="#F2F2F2"/>
<path d="M119.435 15.3337C121.276 15.3337 122.768 13.8435 122.768 12.0052C122.768 10.1668 121.276 8.67661 119.435 8.67661C117.595 8.67661 116.103 10.1668 116.103 12.0052C116.103 13.8435 117.595 15.3337 119.435 15.3337Z" fill="#F2F2F2"/>
<path d="M119.435 28.5994C121.276 28.5994 122.768 27.1091 122.768 25.2708C122.768 23.4325 121.276 21.9423 119.435 21.9423C117.595 21.9423 116.103 23.4325 116.103 25.2708C116.103 27.1091 117.595 28.5994 119.435 28.5994Z" fill="#F2F2F2"/>
<path d="M119.435 41.865C121.276 41.865 122.768 40.3748 122.768 38.5365C122.768 36.6982 121.276 35.2079 119.435 35.2079C117.595 35.2079 116.103 36.6982 116.103 38.5365C116.103 40.3748 117.595 41.865 119.435 41.865Z" fill="#F2F2F2"/>
<path d="M119.435 55.1307C121.276 55.1307 122.768 53.6405 122.768 51.8022C122.768 49.9638 121.276 48.4736 119.435 48.4736C117.595 48.4736 116.103 49.9638 116.103 51.8022C116.103 53.6405 117.595 55.1307 119.435 55.1307Z" fill="#F2F2F2"/>
<path d="M310.108 199.598C311.948 199.598 313.44 198.108 313.44 196.27C313.44 194.432 311.948 192.941 310.108 192.941C308.267 192.941 306.775 194.432 306.775 196.27C306.775 198.108 308.267 199.598 310.108 199.598Z" fill="#F2F2F2"/>
<path d="M310.108 212.864C311.948 212.864 313.44 211.374 313.44 209.536C313.44 207.697 311.948 206.207 310.108 206.207C308.267 206.207 306.775 207.697 306.775 209.536C306.775 211.374 308.267 212.864 310.108 212.864Z" fill="#F2F2F2"/>
<path d="M310.108 226.13C311.948 226.13 313.44 224.64 313.44 222.801C313.44 220.963 311.948 219.473 310.108 219.473C308.267 219.473 306.775 220.963 306.775 222.801C306.775 224.64 308.267 226.13 310.108 226.13Z" fill="#F2F2F2"/>
<path d="M324.022 199.598C325.862 199.598 327.354 198.108 327.354 196.27C327.354 194.432 325.862 192.941 324.022 192.941C322.181 192.941 320.689 194.432 320.689 196.27C320.689 198.108 322.181 199.598 324.022 199.598Z" fill="#F2F2F2"/>
<path d="M324.022 212.864C325.862 212.864 327.354 211.374 327.354 209.536C327.354 207.697 325.862 206.207 324.022 206.207C322.181 206.207 320.689 207.697 320.689 209.536C320.689 211.374 322.181 212.864 324.022 212.864Z" fill="#F2F2F2"/>
<path d="M324.022 226.13C325.862 226.13 327.354 224.64 327.354 222.801C327.354 220.963 325.862 219.473 324.022 219.473C322.181 219.473 320.689 220.963 320.689 222.801C320.689 224.64 322.181 226.13 324.022 226.13Z" fill="#F2F2F2"/>
<path d="M337.936 199.598C339.776 199.598 341.268 198.108 341.268 196.27C341.268 194.432 339.776 192.941 337.936 192.941C336.095 192.941 334.603 194.432 334.603 196.27C334.603 198.108 336.095 199.598 337.936 199.598Z" fill="#F2F2F2"/>
<path d="M337.936 212.864C339.776 212.864 341.268 211.374 341.268 209.536C341.268 207.697 339.776 206.207 337.936 206.207C336.095 206.207 334.603 207.697 334.603 209.536C334.603 211.374 336.095 212.864 337.936 212.864Z" fill="#F2F2F2"/>
<path d="M337.936 226.13C339.776 226.13 341.268 224.64 341.268 222.801C341.268 220.963 339.776 219.473 337.936 219.473C336.095 219.473 334.603 220.963 334.603 222.801C334.603 224.64 336.095 226.13 337.936 226.13Z" fill="#F2F2F2"/>
<path d="M351.85 199.598C353.69 199.598 355.182 198.108 355.182 196.27C355.182 194.432 353.69 192.941 351.85 192.941C350.009 192.941 348.517 194.432 348.517 196.27C348.517 198.108 350.009 199.598 351.85 199.598Z" fill="#F2F2F2"/>
<path d="M351.85 212.864C353.69 212.864 355.182 211.374 355.182 209.536C355.182 207.697 353.69 206.207 351.85 206.207C350.009 206.207 348.517 207.697 348.517 209.536C348.517 211.374 350.009 212.864 351.85 212.864Z" fill="#F2F2F2"/>
<path d="M351.85 226.13C353.69 226.13 355.182 224.64 355.182 222.801C355.182 220.963 353.69 219.473 351.85 219.473C350.009 219.473 348.517 220.963 348.517 222.801C348.517 224.64 350.009 226.13 351.85 226.13Z" fill="#F2F2F2"/>
</g>
<defs>
<clipPath id="clip0_1_22">
<rect width="380" height="280" fill="white"/>
</clipPath>
</defs>
</svg>
